<svg width="1440" height="796" viewBox="0 0 1440 796" fill="none" xmlns="http://www.w3.org/2000/svg">
<g opacity="0.2">
<g opacity="0.1">
<line x1="5.23646" y1="-65.8222" x2="5.23641" y2="1010.82" stroke="white" stroke-width="0.823752"/>
<line x1="84.0921" y1="-65.8222" x2="84.0921" y2="1010.82" stroke="white" stroke-width="0.823752"/>
<line x1="162.948" y1="-65.8222" x2="162.948" y2="1010.82" stroke="white" stroke-width="0.823752"/>
<line x1="241.804" y1="-65.8222" x2="241.804" y2="1010.82" stroke="white" stroke-width="0.823752"/>
<line x1="320.66" y1="-65.8222" x2="320.659" y2="1010.82" stroke="white" stroke-width="0.823752"/>
<line x1="399.515" y1="-65.8222" x2="399.515" y2="1010.82" stroke="white" stroke-width="0.823752"/>
<line x1="478.371" y1="-65.8222" x2="478.371" y2="1010.82" stroke="white" stroke-width="0.823752"/>
<line x1="557.227" y1="-65.8222" x2="557.227" y2="1010.82" stroke="white" stroke-width="0.823752"/>
<line x1="636.083" y1="-65.8222" x2="636.083" y2="1010.82" stroke="white" stroke-width="0.823752"/>
</g>
<g opacity="0.1">
<line x1="714.939" y1="-65.8222" x2="714.939" y2="1010.82" stroke="white" stroke-width="0.823752"/>
<line x1="793.794" y1="-65.8222" x2="793.794" y2="1010.82" stroke="white" stroke-width="0.823752"/>
<line x1="872.65" y1="-65.8222" x2="872.65" y2="1010.82" stroke="white" stroke-width="0.823752"/>
<line x1="951.506" y1="-65.8222" x2="951.506" y2="1010.82" stroke="white" stroke-width="0.823752"/>
<line x1="1030.36" y1="-65.8222" x2="1030.36" y2="1010.82" stroke="white" stroke-width="0.823752"/>
<line x1="1109.22" y1="-65.8222" x2="1109.22" y2="1010.82" stroke="white" stroke-width="0.823752"/>
<line x1="1188.07" y1="-65.8222" x2="1188.07" y2="1010.82" stroke="white" stroke-width="0.823752"/>
<line x1="1266.93" y1="-65.8222" x2="1266.93" y2="1010.82" stroke="white" stroke-width="0.823752"/>
<line x1="1345.78" y1="-65.8222" x2="1345.78" y2="1010.82" stroke="white" stroke-width="0.823752"/>
</g>
<g opacity="0.1">
<line x1="1440" y1="-0.223683" x2="-74.0312" y2="-0.223832" stroke="white" stroke-width="0.823752"/>
<line x1="1440" y1="551.767" x2="-74.0312" y2="551.766" stroke="white" stroke-width="0.823752"/>
<line x1="1440" y1="78.6321" x2="-74.0312" y2="78.6319" stroke="white" stroke-width="0.823752"/>
<line x1="1440" y1="630.622" x2="-74.0312" y2="630.622" stroke="white" stroke-width="0.823752"/>
<line x1="1440" y1="157.488" x2="-74.0312" y2="157.488" stroke="white" stroke-width="0.823752"/>
<line x1="1440" y1="709.478" x2="-74.0312" y2="709.478" stroke="white" stroke-width="0.823752"/>
<line x1="1440" y1="236.344" x2="-74.0312" y2="236.344" stroke="white" stroke-width="0.823752"/>
<line x1="1440" y1="788.334" x2="-74.0312" y2="788.334" stroke="white" stroke-width="0.823752"/>
<line x1="1440" y1="315.199" x2="-74.0312" y2="315.199" stroke="white" stroke-width="0.823752"/>
<line x1="1440" y1="394.055" x2="-74.0312" y2="394.055" stroke="white" stroke-width="0.823752"/>
<line x1="1440" y1="472.911" x2="-74.0312" y2="472.911" stroke="white" stroke-width="0.823752"/>
</g>
</g>
</svg>
