<svg xmlns="http://www.w3.org/2000/svg" version="1.1" xmlns:xlink="http://www.w3.org/1999/xlink" xmlns:svgjs="http://svgjs.dev/svgjs" width="1000" height="1000" viewBox="0 0 1000 1000"><rect width="1000" height="1000" fill="transparent"></rect><g transform="matrix(0.7,0,0,0.7,149.57576257293942,442.382968925084)"><svg viewBox="0 0 396 65" data-background-color="#636365" preserveAspectRatio="xMidYMid meet" height="164" width="1000" xmlns="http://www.w3.org/2000/svg" xmlns:xlink="http://www.w3.org/1999/xlink"><g id="tight-bounds" transform="matrix(1,0,0,1,0.23999717302285717,0.12288344834092868)"><svg viewBox="0 0 395.52 64.75423310331813" height="64.75423310331813" width="395.52"><g><svg viewBox="0 0 489.31484771912545 80.11025412145747" height="64.75423310331813" width="395.52"><g transform="matrix(1,0,0,1,93.79484771912549,11.071677668016193)"><svg viewBox="0 0 395.52 57.96689878542509" height="57.96689878542509" width="395.52"><g id="textblocktransform"><svg viewBox="0 0 395.52 57.96689878542509" height="57.96689878542509" width="395.52" id="textblock"><g><svg viewBox="0 0 395.52 57.96689878542509" height="57.96689878542509" width="395.52"><g transform="matrix(1,0,0,1,0,0)"><svg width="395.52" viewBox="3.0999999046325684 -35.400001525878906 246.97999572753906 36.20000076293945" height="57.96689878542509" data-palette-color="#ffffff"><path d="M12.5-34.6Q19.05-34.6 22.55-31.8 26.05-29 26.05-23.5L26.05-23.5Q26.05-17.7 22.6-14.78 19.15-11.85 13.1-11.85L13.1-11.85 10.3-11.85 10.3 0 3.1 0 3.1-34.6 12.5-34.6ZM12.6-17.15Q15.65-17.15 17.15-18.6 18.65-20.05 18.65-23.45L18.65-23.45Q18.65-26.5 17.15-27.95 15.65-29.4 12.55-29.4L12.55-29.4 10.3-29.4 10.3-17.15 12.6-17.15ZM54.05 0L46.85 0 46.85-15.2 37.25-15.2 37.25 0 30.05 0 30.05-34.6 37.25-34.6 37.25-20.9 46.85-20.9 46.85-34.6 54.05-34.6 54.05 0ZM77.1 0L70.55-13.65 67.45-13.65 67.45 0 60.25 0 60.25-34.6 69.85-34.6Q83.15-34.6 83.15-24.3L83.15-24.3Q83.15-17.55 77.1-15L77.1-15 85.05 0 77.1 0ZM67.45-18.7L70.2-18.7Q73.05-18.7 74.37-20.05 75.7-21.4 75.7-24.3L75.7-24.3Q75.7-26.95 74.27-28.2 72.85-29.45 69.8-29.45L69.8-29.45 67.45-29.45 67.45-18.7ZM112.34 0L104.89 0 103.19-7.8 93.69-7.8 91.99 0 84.69 0 94.19-34.6 102.89-34.6 112.34 0ZM98.44-29.25L94.89-13.1 101.99-13.1 98.44-29.25ZM114.19-34.6L134.94-34.6 134.94-29.1 120.89-5.8 135.19-5.8 134.44 0 112.79 0 112.79-5.45 126.99-28.95 114.19-28.95 114.19-34.6ZM152.04-35.4Q158.69-35.4 162.34-30.78 165.99-26.15 165.99-17.3L165.99-17.3Q165.99-8.55 162.34-3.88 158.69 0.8 152.04 0.8L152.04 0.8Q145.39 0.8 141.71-3.83 138.04-8.45 138.04-17.3L138.04-17.3Q138.04-26.05 141.71-30.73 145.39-35.4 152.04-35.4L152.04-35.4ZM152.04-30Q148.74-30 147.14-27.05 145.54-24.1 145.54-17.3L145.54-17.3Q145.54-10.45 147.16-7.53 148.79-4.6 152.04-4.6L152.04-4.6Q155.34-4.6 156.91-7.53 158.49-10.45 158.49-17.3L158.49-17.3Q158.49-24.1 156.91-27.05 155.34-30 152.04-30L152.04-30ZM187.69 0L181.14-13.65 178.04-13.65 178.04 0 170.84 0 170.84-34.6 180.44-34.6Q193.74-34.6 193.74-24.3L193.74-24.3Q193.74-17.55 187.69-15L187.69-15 195.64 0 187.69 0ZM178.04-18.7L180.79-18.7Q183.64-18.7 184.96-20.05 186.29-21.4 186.29-24.3L186.29-24.3Q186.29-26.95 184.86-28.2 183.44-29.45 180.39-29.45L180.39-29.45 178.04-29.45 178.04-18.7ZM201.28-7.6Q203.08-7.6 204.26-6.38 205.43-5.15 205.43-3.4L205.43-3.4Q205.43-1.65 204.26-0.43 203.08 0.8 201.28 0.8L201.28 0.8Q199.53 0.8 198.36-0.45 197.18-1.7 197.18-3.4L197.18-3.4Q197.18-5.1 198.36-6.35 199.53-7.6 201.28-7.6L201.28-7.6ZM210.08-34.6L217.28-34.6 217.28 0 210.08 0 210.08-34.6ZM236.13-35.4Q242.78-35.4 246.43-30.78 250.08-26.15 250.08-17.3L250.08-17.3Q250.08-8.55 246.43-3.88 242.78 0.8 236.13 0.8L236.13 0.8Q229.48 0.8 225.8-3.83 222.13-8.45 222.13-17.3L222.13-17.3Q222.13-26.05 225.8-30.73 229.48-35.4 236.13-35.4L236.13-35.4ZM236.13-30Q232.83-30 231.23-27.05 229.63-24.1 229.63-17.3L229.63-17.3Q229.63-10.45 231.25-7.53 232.88-4.6 236.13-4.6L236.13-4.6Q239.43-4.6 241-7.53 242.58-10.45 242.58-17.3L242.58-17.3Q242.58-24.1 241-27.05 239.43-30 236.13-30L236.13-30Z" opacity="1" transform="matrix(1,0,0,1,0,0)" fill="#ffffff" class="wordmark-text-0" data-fill-palette-color="primary" id="text-0"></path></svg></g></svg></g></svg></g></svg></g><g><svg viewBox="0 0 80.11025412145747 80.11025412145747" height="80.11025412145747" width="80.11025412145747"><g data-palette-color="#ffffff"><rect width="21.896802793198376" height="80.11025412145747" fill="#ffffff" stroke="transparent" data-fill-palette-color="accent" x="0" fill-opacity="0.5"></rect><rect width="21.896802793198376" height="80.11025412145747" fill="#ffffff" stroke="transparent" data-fill-palette-color="accent" x="26.703418040485822" fill-opacity="0.75"></rect><rect width="21.896802793198376" height="80.11025412145747" fill="#ffffff" stroke="transparent" data-fill-palette-color="accent" x="53.406836080971644" fill-opacity="1"></rect></g></svg></g></svg></g><defs></defs></svg><rect width="395.52" height="64.75423310331813" fill="none" stroke="none" visibility="hidden"></rect></g></svg></g></svg>