<svg width="1440" height="441" viewBox="0 0 1440 441" fill="none" xmlns="http://www.w3.org/2000/svg">
<mask id="mask0_69_186" style="mask-type:alpha" maskUnits="userSpaceOnUse" x="0" y="0" width="1440" height="441">
<rect width="1440" height="441" fill="#3D3E94"/>
</mask>
<g mask="url(#mask0_69_186)">
<g opacity="0.2">
<line x1="151.325" y1="0.177734" x2="151.325" y2="1076.82" stroke="white"/>
<line x1="230.18" y1="0.177734" x2="230.18" y2="1076.82" stroke="white"/>
<line x1="309.036" y1="0.177734" x2="309.036" y2="1076.82" stroke="white"/>
<line x1="387.892" y1="0.177734" x2="387.892" y2="1076.82" stroke="white"/>
<line x1="466.748" y1="0.177734" x2="466.748" y2="1076.82" stroke="white"/>
<line x1="545.604" y1="0.177734" x2="545.603" y2="1076.82" stroke="white"/>
<line x1="624.459" y1="0.177734" x2="624.459" y2="1076.82" stroke="white"/>
<line x1="703.315" y1="0.177734" x2="703.315" y2="1076.82" stroke="white"/>
<line x1="782.171" y1="0.177734" x2="782.171" y2="1076.82" stroke="white"/>
</g>
<g opacity="0.2">
<line x1="861.027" y1="0.177734" x2="861.027" y2="1076.82" stroke="white"/>
<line x1="939.882" y1="0.177734" x2="939.882" y2="1076.82" stroke="white"/>
<line x1="1018.74" y1="0.177734" x2="1018.74" y2="1076.82" stroke="white"/>
<line x1="1097.59" y1="0.177734" x2="1097.59" y2="1076.82" stroke="white"/>
<line x1="1176.45" y1="0.177734" x2="1176.45" y2="1076.82" stroke="white"/>
<line x1="1255.31" y1="0.177734" x2="1255.31" y2="1076.82" stroke="white"/>
<line x1="1334.16" y1="0.177734" x2="1334.16" y2="1076.82" stroke="white"/>
<line x1="1413.02" y1="0.177734" x2="1413.02" y2="1076.82" stroke="white"/>
</g>
<g opacity="0.2">
<line x1="1586" y1="65.8645" x2="71.9688" y2="65.8643" stroke="white"/>
<line x1="1586" y1="144.72" x2="71.9688" y2="144.72" stroke="white"/>
<line x1="1586" y1="223.576" x2="71.9688" y2="223.576" stroke="white"/>
<line x1="1586" y1="302.432" x2="71.9688" y2="302.432" stroke="white"/>
<line x1="1586" y1="381.288" x2="71.9688" y2="381.287" stroke="white"/>
</g>
<g opacity="0.2" clip-path="url(#clip0_69_186)">
<path opacity="0.6" d="M1372.48 110.626L1400.58 86.1314C1400.99 85.7774 1401.36 85.4157 1401.73 85.0209C1405.49 80.967 1427.99 57 1434 57V457.4H56V443.1C61.6541 443.1 81.9236 432.483 87.424 429.545C88.3557 429.048 89.2112 428.45 90.0076 427.756L114.142 406.718C118.651 402.787 125.108 402.025 130.408 404.797L147.701 413.841C151.915 416.045 156.942 416.045 161.156 413.841L184.077 401.853C186.154 400.767 188.462 400.2 190.805 400.2H213.843C217.806 400.2 221.597 398.58 224.335 395.715L247.503 371.48C250.849 367.98 255.72 366.379 260.49 367.211L282.556 371.058C284.606 371.415 286.708 371.328 288.722 370.801L311.577 364.824C315.928 363.686 319.506 360.596 321.265 356.457L351.286 285.8L370.097 236.606C374.909 224.024 392.775 224.211 397.321 236.892L412.782 280.02C415.165 286.666 421.984 290.634 428.94 289.422L442.898 286.988C447.21 286.237 451.631 287.47 454.93 290.346L472.985 306.085C478.452 310.85 486.596 310.85 492.062 306.085L515.333 285.8L542.789 257.08C546.135 253.58 551.005 251.979 555.775 252.811L570.929 255.453C576.946 256.502 582.976 253.672 586.015 248.375L601.17 221.953C606.748 212.228 620.776 212.228 626.354 221.953L645.357 255.083C646.161 256.485 647.193 257.742 648.411 258.803L669.842 277.485C675.309 282.25 683.453 282.25 688.92 277.485L699.476 268.283C706.169 262.449 716.484 263.937 721.256 271.424L741.559 303.281C743.751 306.72 747.289 309.079 751.307 309.78L770.993 313.212C775.305 313.963 779.726 312.73 783.025 309.854L810.619 285.8L840.789 264.761C842.528 263.548 844.511 262.731 846.599 262.367L872.247 257.896C874.858 257.441 877.294 256.279 879.292 254.538L909.048 228.6L941.857 202.86L965.086 180.586C970.51 175.385 979.007 175.184 984.672 180.121L1001.12 194.459C1005.05 197.885 1010.52 198.94 1015.44 197.224L1035.51 190.226C1038.6 189.147 1041.97 189.147 1045.07 190.226L1061.72 196.033C1068.32 198.333 1075.61 195.609 1079.09 189.549L1105.9 142.8L1129.91 100.941C1134.47 93.0008 1145.15 91.2062 1152.05 97.2208L1169.68 112.597C1170.9 113.658 1171.93 114.915 1172.74 116.317L1191.74 149.447C1197.32 159.172 1211.35 159.172 1216.93 149.447L1219.06 145.718C1225.59 134.346 1242.65 136.763 1245.76 149.499L1259.82 207.106C1263.11 220.577 1281.61 222.21 1287.2 209.523L1302.76 174.26L1331.44 121.757C1333.99 117.098 1338.87 114.2 1344.18 114.2H1362.94C1366.45 114.2 1369.84 112.931 1372.48 110.626Z" fill="url(#paint0_linear_69_186)"/>
<path d="M1434 57C1427.99 57 1405.49 80.967 1401.73 85.0209C1401.36 85.4157 1400.99 85.7774 1400.58 86.1314L1372.48 110.626C1369.84 112.931 1366.45 114.2 1362.94 114.2H1344.18C1338.87 114.2 1333.99 117.098 1331.44 121.757L1302.76 174.26L1287.2 209.523C1281.61 222.21 1263.11 220.577 1259.82 207.106L1245.76 149.499C1242.65 136.763 1225.59 134.346 1219.06 145.718L1216.93 149.447C1211.35 159.172 1197.32 159.172 1191.74 149.447L1172.74 116.317C1171.93 114.915 1170.9 113.658 1169.68 112.597L1152.05 97.2208C1145.15 91.2063 1134.47 93.0008 1129.91 100.941L1105.9 142.8L1079.09 189.549C1075.61 195.609 1068.31 198.333 1061.72 196.033L1045.07 190.226C1041.97 189.147 1038.6 189.147 1035.51 190.226L1015.44 197.224C1010.52 198.94 1005.05 197.885 1001.12 194.459L984.672 180.122C979.007 175.184 970.51 175.385 965.086 180.586L941.857 202.86L909.048 228.6L879.292 254.538C877.294 256.279 874.858 257.441 872.247 257.896L846.599 262.367C844.511 262.731 842.528 263.548 840.789 264.761L810.619 285.8L783.025 309.854C779.726 312.73 775.305 313.963 770.993 313.212L751.307 309.78C747.289 309.079 743.751 306.72 741.559 303.281L721.256 271.424C716.484 263.937 706.169 262.449 699.476 268.283L688.92 277.485C683.453 282.25 675.309 282.25 669.842 277.485L648.411 258.803C647.193 257.742 646.161 256.485 645.357 255.083L626.354 221.953C620.776 212.228 606.748 212.228 601.17 221.953L586.015 248.375C582.976 253.672 576.946 256.502 570.929 255.453L555.775 252.811C551.005 251.979 546.135 253.58 542.789 257.08L515.333 285.8L492.062 306.085C486.596 310.85 478.452 310.85 472.985 306.085L454.93 290.346C451.631 287.47 447.21 286.237 442.898 286.988L428.94 289.422C421.984 290.634 415.165 286.666 412.782 280.02L397.321 236.892C392.775 224.211 374.909 224.024 370.097 236.606L351.286 285.8L321.265 356.457C319.506 360.596 315.928 363.686 311.577 364.824L288.722 370.801C286.709 371.328 284.606 371.415 282.556 371.058L260.49 367.211C255.72 366.379 250.849 367.98 247.503 371.48L224.335 395.715C221.597 398.58 217.806 400.2 213.843 400.2H190.805C188.462 400.2 186.154 400.767 184.077 401.853L161.156 413.841C156.942 416.045 151.915 416.045 147.701 413.841L130.408 404.797C125.108 402.025 118.651 402.788 114.142 406.718L90.0076 427.756C89.2112 428.45 88.3558 429.048 87.4239 429.545C81.9236 432.483 61.654 443.1 56 443.1" stroke="white" stroke-width="7.25818" stroke-linejoin="round"/>
</g>
<circle opacity="0.34" cx="1141.5" cy="93.5" r="16.5" fill="white"/>
<circle opacity="0.2" cx="1141.5" cy="93.5" r="23.5" fill="white"/>
<circle cx="1141.5" cy="93.5" r="9.5" fill="white"/>
<g filter="url(#filter0_f_69_186)">
<path d="M1563 414.922C1563 527.194 1442.82 677 1331.15 677C1219.48 677 1135 604.617 1135 492.345C1135 380.073 1200.82 246 1312.49 246C1424.16 246 1563 302.65 1563 414.922Z" fill="url(#paint1_radial_69_186)"/>
</g>
</g>
<defs>
<filter id="filter0_f_69_186" x="971" y="82" width="756" height="759" filterUnits="userSpaceOnUse" color-interpolation-filters="sRGB">
<feFlood flood-opacity="0" result="BackgroundImageFix"/>
<feBlend mode="normal" in="SourceGraphic" in2="BackgroundImageFix" result="shape"/>
<feGaussianBlur stdDeviation="82" result="effect1_foregroundBlur_69_186"/>
</filter>
<linearGradient id="paint0_linear_69_186" x1="745" y1="57" x2="745" y2="457.4" gradientUnits="userSpaceOnUse">
<stop stop-color="white"/>
<stop offset="1" stop-color="white" stop-opacity="0"/>
</linearGradient>
<radialGradient id="paint1_radial_69_186" cx="0" cy="0" r="1" gradientUnits="userSpaceOnUse" gradientTransform="translate(1135 246) rotate(46.0559) scale(616.753 616.61)">
<stop stop-color="#7CDFFF"/>
<stop offset="1" stop-color="#13B6EC"/>
</radialGradient>
<clipPath id="clip0_69_186">
<rect width="1378" height="385" fill="white" transform="matrix(-1 0 0 1 1434 57)"/>
</clipPath>
</defs>
</svg>
