<svg width="342" height="292" viewBox="0 0 342 292" fill="none" xmlns="http://www.w3.org/2000/svg">
<g filter="url(#filter0_d_25_658)">
<path d="M281.839 108.465C281.839 109.043 281.839 109.429 281.839 110.007C281.839 110.778 281.839 111.549 281.646 112.32C281.646 112.706 281.646 112.899 281.453 113.284C281.26 114.056 281.26 114.827 281.068 115.598C281.068 115.983 280.875 116.176 280.875 116.562C280.489 118.104 279.91 119.839 279.139 121.382C278.946 121.767 278.753 121.96 278.753 122.345C278.175 123.309 277.596 124.466 277.017 125.43C276.825 125.816 276.632 126.008 276.439 126.394C274.317 129.479 271.617 132.178 268.532 134.298C268.146 134.491 267.76 134.877 267.375 135.069C267.182 135.262 266.989 135.262 266.796 135.455C266.796 135.455 266.796 135.455 266.603 135.455C266.217 135.648 265.639 136.033 265.253 136.226C264.867 136.419 264.674 136.612 264.289 136.612C263.903 136.805 263.71 136.997 263.324 136.997C262.746 137.19 262.167 137.576 261.396 137.769C261.01 137.961 260.432 138.154 260.046 138.154C259.082 138.54 258.117 138.732 256.96 138.925C256.382 139.118 255.61 139.118 255.031 139.311C254.26 139.311 253.681 139.504 252.91 139.504C252.331 139.504 251.753 139.504 251.174 139.504C250.981 139.504 249.246 139.504 238.638 139.504H229.96C227.26 139.504 224.174 139.504 220.895 139.504H218.967C215.302 139.504 211.252 139.504 206.817 139.504H148.187C145.873 139.504 143.559 139.504 141.437 139.118C140.859 138.925 140.087 138.925 139.509 138.732C123.116 135.262 111.351 120.803 111.351 103.838C111.351 101.91 111.544 100.175 111.737 98.2469L112.123 96.319C115.594 79.932 130.444 67.4007 148.573 68.1719C148.766 67.4007 149.152 66.6296 149.344 65.8584C150.116 63.9305 150.887 62.0027 151.852 60.0748C152.43 58.9181 153.009 57.5685 153.78 56.4118C162.459 41.5671 176.538 33.0844 191.388 30.7709C191.966 30.7709 192.738 30.5781 193.316 30.5781C193.895 30.5781 194.474 30.3854 195.052 30.3854C195.245 30.3854 195.438 30.3854 195.631 30.3854C196.016 30.3854 196.402 30.3854 196.788 30.3854C204.309 29.9998 212.024 30.9637 219.16 33.2772C219.545 33.47 219.738 33.47 220.124 33.6628C230.924 37.5185 240.374 44.6517 246.931 54.6767C247.317 55.2551 247.703 56.0262 248.089 56.6046C250.21 60.2676 251.946 64.3161 253.103 68.5575C253.296 68.9431 253.489 69.5214 253.489 69.907C254.067 72.4132 254.646 75.1123 255.031 77.8113C256.767 78.0041 258.503 78.3897 260.046 78.968C260.624 79.1608 261.203 79.3536 261.589 79.5464C261.974 79.7392 262.36 79.932 262.939 80.1248C264.289 80.7031 265.446 81.2815 266.603 82.0527C266.603 82.0527 266.796 82.0527 266.796 82.2455C267.567 82.631 268.146 83.2094 268.917 83.595C269.11 83.7878 269.496 83.9805 269.689 84.1733C269.882 84.3661 270.075 84.5589 270.267 84.7517C270.46 84.9445 270.846 85.1373 271.039 85.5229C271.232 85.7156 271.425 85.9084 271.617 86.1012C271.81 86.294 272.003 86.4868 272.196 86.6796C272.389 86.8724 272.582 87.0652 272.582 87.0652C272.775 87.258 273.16 87.6435 273.353 87.8363C273.932 88.4147 274.317 88.8003 274.703 89.3786C274.896 89.5714 275.089 89.7642 275.282 90.1498C277.403 93.2344 279.139 96.5118 280.103 100.368C280.103 100.753 280.296 101.139 280.296 101.524C280.489 101.91 280.489 102.488 280.489 102.874C280.489 103.259 280.682 103.838 280.682 104.223C281.839 105.573 281.839 106.922 281.839 108.465Z" fill="#3A4051"/>
</g>
<path d="M281.839 108.465C281.839 109.043 281.839 109.429 281.839 110.007C281.839 110.778 281.839 111.549 281.646 112.32C281.646 112.706 281.646 112.899 281.453 113.284C281.26 114.056 281.26 114.827 281.067 115.598C281.067 115.983 280.875 116.176 280.875 116.562C280.489 118.297 279.91 119.839 279.139 121.382C278.946 121.767 278.753 121.96 278.753 122.345C278.175 123.309 277.596 124.466 277.017 125.43C276.825 125.816 276.632 126.008 276.439 126.394C274.317 129.479 271.617 132.178 268.532 134.106C268.146 134.298 267.76 134.684 267.374 134.877C267.182 135.07 266.989 135.07 266.796 135.262C266.796 135.262 266.796 135.262 266.603 135.262C266.217 135.455 265.832 135.841 265.253 136.033C264.867 136.226 264.674 136.419 264.289 136.419C263.903 136.612 263.71 136.805 263.324 136.805C262.746 136.997 262.167 137.383 261.396 137.576C261.01 137.769 260.431 137.961 260.046 137.961C259.081 138.347 258.117 138.54 256.96 138.733C256.381 138.925 255.61 138.925 255.031 138.925C254.26 138.925 253.681 139.118 252.91 139.118C252.331 139.118 251.753 139.118 251.174 139.118C246.738 139.118 242.496 138.154 238.638 136.419C238.06 136.226 237.288 135.841 236.71 135.455C234.395 134.298 232.274 132.563 230.345 130.828C224.174 125.237 220.51 117.14 220.51 108.272C220.51 91.3065 234.395 77.4258 251.367 77.4258C252.717 77.4258 254.067 77.6186 255.417 77.6186C257.153 77.8114 258.889 78.1969 260.624 78.7753C261.203 78.9681 261.781 79.1609 262.167 79.3537C262.553 79.5465 262.939 79.7392 263.517 79.932C264.867 80.5104 266.024 81.0888 267.182 81.8599H267.374C268.146 82.2455 268.724 82.8239 269.496 83.2094C269.689 83.4022 270.074 83.595 270.267 83.7878C270.46 83.9806 270.653 84.1734 271.039 84.3662C271.232 84.559 271.617 84.7517 271.81 85.1373C272.003 85.3301 272.196 85.5229 272.389 85.7157C272.582 85.9085 272.774 86.1013 272.967 86.2941C273.16 86.4868 273.353 86.6796 273.353 86.6796C273.546 86.8724 273.932 87.258 274.125 87.4508C274.703 88.0291 275.089 88.6075 275.475 88.9931C275.667 89.1859 275.86 89.3787 276.053 89.7642C278.175 92.8489 279.91 96.1263 280.875 99.982C280.875 100.368 281.067 100.753 281.067 100.946C281.26 101.332 281.26 101.91 281.453 102.295C281.453 102.681 281.646 103.259 281.646 103.645C281.839 105.573 281.839 106.922 281.839 108.465Z" fill="url(#paint0_linear_25_658)"/>
<path d="M200.838 139.504C231.088 139.504 255.61 114.991 255.61 84.7519C255.61 54.5133 231.088 30 200.838 30C170.588 30 146.066 54.5133 146.066 84.7519C146.066 114.991 170.588 139.504 200.838 139.504Z" fill="url(#paint1_linear_25_658)"/>
<path d="M164.773 87.0655C164.773 87.6439 164.388 88.0294 163.809 88.0294H143.752C142.594 88.0294 141.437 88.9934 141.437 90.3429V138.926C140.859 138.733 140.087 138.733 139.509 138.54V90.3429C139.509 88.0294 141.437 86.1016 143.752 86.1016H164.002C164.388 86.1016 164.773 86.4871 164.773 87.0655Z" fill="#697791"/>
<path d="M212.988 107.308C209.516 109.621 205.466 110.971 201.031 110.971C189.073 110.971 179.238 101.139 179.238 89.1857C179.238 77.2328 189.073 67.4006 201.031 67.4006C212.988 67.4006 222.824 77.2328 222.824 89.1857C222.824 96.7045 218.967 103.452 212.988 107.308Z" fill="url(#paint2_linear_25_658)"/>
<path d="M198.138 97.2831C197.366 97.2831 196.788 97.0903 196.209 96.5119L190.616 90.9211C189.652 89.9571 189.652 88.222 190.616 87.2581C191.581 86.2941 193.316 86.2941 194.281 87.2581L197.945 90.9211L207.395 81.4744C208.359 80.5105 210.095 80.5105 211.06 81.4744C212.024 82.4384 212.024 84.1735 211.06 85.1374L199.681 96.5119C199.488 97.0903 198.909 97.2831 198.138 97.2831Z" fill="white"/>
<path d="M239.796 104.803C239.41 105.768 238.446 106.346 237.289 106.346C235.746 106.346 234.589 105.189 234.589 103.646C234.589 102.103 235.746 100.946 237.289 100.946C238.831 100.946 239.989 102.103 239.989 103.646C240.181 103.839 240.181 104.418 239.796 104.803Z" stroke="#697791" stroke-width="2.69393" stroke-miterlimit="10"/>
<path d="M219.738 120.998C221.23 120.998 222.438 119.789 222.438 118.298C222.438 116.807 221.23 115.598 219.738 115.598C218.247 115.598 217.038 116.807 217.038 118.298C217.038 119.789 218.247 120.998 219.738 120.998Z" stroke="#697791" stroke-width="2.69393" stroke-miterlimit="10"/>
<path d="M252.138 104.611C253.63 104.611 254.839 103.402 254.839 101.911C254.839 100.42 253.63 99.2109 252.138 99.2109C250.647 99.2109 249.438 100.42 249.438 101.911C249.438 103.402 250.647 104.611 252.138 104.611Z" stroke="#697791" stroke-width="2.69393" stroke-miterlimit="10"/>
<path d="M252.138 89.5734C253.63 89.5734 254.839 88.3646 254.839 86.8734C254.839 85.3822 253.63 84.1733 252.138 84.1733C250.647 84.1733 249.438 85.3822 249.438 86.8734C249.438 88.3646 250.647 89.5734 252.138 89.5734Z" stroke="#697791" stroke-width="2.69393" stroke-miterlimit="10"/>
<path d="M234.203 80.1271C235.694 80.1271 236.903 78.9183 236.903 77.4271C236.903 75.9359 235.694 74.7271 234.203 74.7271C232.712 74.7271 231.503 75.9359 231.503 77.4271C231.503 78.9183 232.712 80.1271 234.203 80.1271Z" stroke="#697791" stroke-width="2.69393" stroke-miterlimit="10"/>
<path d="M192.352 61.8122C193.843 61.8122 195.052 60.6033 195.052 59.1121C195.052 57.621 193.843 56.4121 192.352 56.4121C190.861 56.4121 189.652 57.621 189.652 59.1121C189.652 60.6033 190.861 61.8122 192.352 61.8122Z" stroke="#697791" stroke-width="2.69393" stroke-miterlimit="10"/>
<path d="M178.466 72.2231C179.957 72.2231 181.166 71.0142 181.166 69.523C181.166 68.0318 179.957 66.823 178.466 66.823C176.975 66.823 175.766 68.0318 175.766 69.523C175.766 71.0142 176.975 72.2231 178.466 72.2231Z" stroke="#697791" stroke-width="2.69393" stroke-miterlimit="10"/>
<path d="M166.702 89.5734C168.193 89.5734 169.402 88.3646 169.402 86.8734C169.402 85.3822 168.193 84.1733 166.702 84.1733C165.211 84.1733 164.002 85.3822 164.002 86.8734C164.002 88.3646 165.211 89.5734 166.702 89.5734Z" stroke="#697791" stroke-width="2.69393" stroke-miterlimit="10"/>
<path d="M123.887 99.7917C125.378 99.7917 126.587 98.5828 126.587 97.0916C126.587 95.6004 125.378 94.3916 123.887 94.3916C122.396 94.3916 121.187 95.6004 121.187 97.0916C121.187 98.5828 122.396 99.7917 123.887 99.7917Z" stroke="#697791" stroke-width="2.69393" stroke-miterlimit="10"/>
<path d="M248.088 56.4115H237.867C236.324 56.4115 235.167 57.5683 235.167 59.1106V74.7264C235.167 75.3048 234.781 75.6904 234.203 75.6904C233.624 75.6904 233.238 75.3048 233.238 74.7264V59.1106C233.238 56.6043 235.36 54.4836 237.867 54.4836H246.931C247.317 55.2548 247.703 55.8332 248.088 56.4115Z" fill="#697791"/>
<path d="M273.932 87.837H254.839C254.26 87.837 253.874 87.4513 253.874 86.8727C253.874 86.2942 254.26 85.9084 254.839 85.9084H272.003C272.196 86.1013 272.389 86.2942 272.582 86.487C272.775 86.6799 272.967 86.8727 272.967 86.8727C273.353 87.2585 273.739 87.4513 273.932 87.837Z" fill="#697791"/>
<path d="M238.446 106.344V139.311H236.517V106.344C236.517 105.765 236.903 105.38 237.481 105.38C238.06 105.38 238.446 105.765 238.446 106.344Z" fill="#697791"/>
<path d="M268.339 104.995V133.913C267.953 134.106 267.567 134.491 267.182 134.684C266.989 134.877 266.796 134.877 266.603 135.07V104.995C266.603 103.838 265.639 102.874 264.289 102.874H255.032C254.453 102.874 254.067 102.488 254.067 101.91C254.067 101.332 254.453 100.946 255.032 100.946H264.289C266.41 100.946 268.339 102.681 268.339 104.995Z" fill="#697791"/>
<path d="M220.51 121.189V139.311H218.581V121.189C218.581 120.611 218.967 120.225 219.545 120.225C220.124 120.225 220.51 120.611 220.51 121.189Z" fill="#697791"/>
<path d="M193.317 30.5786V56.4123C193.317 56.9906 192.931 57.3762 192.352 57.3762C191.774 57.3762 191.388 56.9906 191.388 56.4123V30.7714C191.967 30.5786 192.738 30.5786 193.317 30.5786Z" fill="#697791"/>
<path d="M176.731 69.5214C176.731 70.0998 176.345 70.4853 175.766 70.4853H156.673C154.166 70.4853 152.045 68.3647 152.045 65.8584V59.882C152.623 58.5325 153.202 57.3757 153.973 56.219V65.8584C153.973 67.4007 155.13 68.5575 156.673 68.5575H175.766C176.345 68.5575 176.731 68.943 176.731 69.5214Z" fill="#697791"/>
<path d="M112.315 96.1267H121.187C121.766 96.1267 122.151 96.5124 122.151 97.091C122.151 97.6696 121.766 98.0553 121.187 98.0553H111.93L112.315 96.1267Z" fill="#697791"/>
<path d="M160.916 281.782C146.259 282.167 128.709 281.782 116.366 281.589C104.023 281.975 86.4725 282.167 71.8152 281.782C86.2796 273.492 91.294 258.262 92.0654 248.237H140.473C141.437 258.262 146.452 273.685 160.916 281.782Z" fill="url(#paint3_linear_25_658)"/>
<path d="M73.3581 284.29H159.373C160.531 284.29 161.688 283.326 161.688 281.976C161.688 280.819 160.723 279.661 159.373 279.661H73.3581C72.201 279.661 71.0438 280.626 71.0438 281.976C71.0438 283.326 72.0081 284.29 73.3581 284.29Z" fill="#353B4A"/>
<path d="M207.395 120.611V246.694C207.395 249.779 204.888 252.092 201.995 252.092H30.5431C27.6502 252.092 25.143 249.586 25.143 246.694V120.611C25.143 117.719 27.6502 115.213 30.5431 115.213H201.995C205.081 115.213 207.395 117.526 207.395 120.611Z" fill="#353B4A"/>
<path d="M207.395 120.611V229.151H25.143V120.611C25.143 117.719 27.6502 115.213 30.5431 115.213H201.995C205.081 115.213 207.395 117.526 207.395 120.611Z" fill="#262A31"/>
<path d="M200.838 121.96H31.7003V222.981H200.838V121.96Z" fill="#474E61"/>
<path d="M116.366 245.73C118.815 245.73 120.801 243.745 120.801 241.296C120.801 238.847 118.815 236.862 116.366 236.862C113.916 236.862 111.93 238.847 111.93 241.296C111.93 243.745 113.916 245.73 116.366 245.73Z" fill="#262A31"/>
<path d="M239.796 180.955V177.097" stroke="#353E4E" stroke-width="2.69393" stroke-linecap="round" stroke-linejoin="round"/>
<path d="M239.796 172.28V164.954" stroke="#353E4E" stroke-width="2.69393" stroke-linecap="round" stroke-linejoin="round" stroke-dasharray="6.73 6.73"/>
<path d="M239.796 162.639V158.782" stroke="#353E4E" stroke-width="2.69393" stroke-linecap="round" stroke-linejoin="round"/>
<path d="M239.603 190.595C241.094 190.595 242.303 189.386 242.303 187.895C242.303 186.403 241.094 185.195 239.603 185.195C238.112 185.195 236.903 186.403 236.903 187.895C236.903 189.386 238.112 190.595 239.603 190.595Z" stroke="#353E4E" stroke-width="2.69393" stroke-miterlimit="10"/>
<path d="M239.603 153.965C241.094 153.965 242.303 152.756 242.303 151.265C242.303 149.774 241.094 148.565 239.603 148.565C238.112 148.565 236.903 149.774 236.903 151.265C236.903 152.756 238.112 153.965 239.603 153.965Z" stroke="#353E4E" stroke-width="2.69393" stroke-miterlimit="10"/>
<path d="M4.89294 175.171V171.313" stroke="#353E4E" stroke-width="2.69393" stroke-linecap="round" stroke-linejoin="round"/>
<path d="M4.89296 163.989V106.152C4.89296 98.0554 11.2573 91.6934 19.3574 91.6934H83.001" stroke="#353E4E" stroke-width="2.69393" stroke-linecap="round" stroke-linejoin="round" stroke-dasharray="10.32 10.32"/>
<path d="M86.4724 91.6934H90.3296" stroke="#353E4E" stroke-width="2.69393" stroke-linecap="round" stroke-linejoin="round"/>
<path d="M4.70003 184.811C6.19122 184.811 7.40006 183.602 7.40006 182.111C7.40006 180.62 6.19122 179.411 4.70003 179.411C3.20885 179.411 2 180.62 2 182.111C2 183.602 3.20885 184.811 4.70003 184.811Z" stroke="#353E4E" stroke-width="2.69393" stroke-miterlimit="10"/>
<path d="M97.4655 94.2006C98.9566 94.2006 100.165 92.9918 100.165 91.5006C100.165 90.0094 98.9566 88.8005 97.4655 88.8005C95.9743 88.8005 94.7654 90.0094 94.7654 91.5006C94.7654 92.9918 95.9743 94.2006 97.4655 94.2006Z" stroke="#353E4E" stroke-width="2.69393" stroke-miterlimit="10"/>
<path d="M44.6219 278.118C44.6219 281.203 42.1147 283.709 39.0289 283.709H8.94285C5.8571 283.709 3.34993 281.203 3.34993 278.118V207.365C3.34993 204.28 5.8571 201.774 8.94285 201.774H39.2218C42.3075 201.774 44.8147 204.28 44.8147 207.365V278.118H44.6219Z" fill="#474E61"/>
<path d="M39.2218 201.774C42.3075 201.774 44.8147 204.28 44.8147 207.365V278.311C44.8147 281.396 42.3075 283.902 39.2218 283.902H8.94285C5.8571 283.902 3.34993 281.396 3.34993 278.311V207.365C3.34993 204.28 5.8571 201.774 8.94285 201.774H39.2218Z" fill="#262A31"/>
<path d="M39.2216 204.474C40.7645 204.474 41.9216 205.631 41.9216 207.173V278.119C41.9216 279.662 40.7645 280.818 39.2216 280.818H8.94265C7.39977 280.818 6.24261 279.662 6.24261 278.119V207.366C6.24261 205.824 7.39977 204.667 8.94265 204.667H13.3784C13.957 204.667 14.3427 205.052 14.3427 205.631C14.3427 206.788 15.307 207.752 16.4642 207.752H31.8929C33.0501 207.752 34.0144 206.788 34.0144 205.631C34.0144 205.052 34.4001 204.667 34.9787 204.667H39.2216V204.474Z" fill="#474E61"/>
<path d="M26.6857 205.439H22.6356C22.2499 205.439 22.057 205.053 22.057 204.86C22.057 204.474 22.4427 204.281 22.6356 204.281H26.6857C27.0714 204.281 27.2642 204.667 27.2642 204.86C27.2642 205.246 27.0714 205.439 26.6857 205.439Z" fill="#151515"/>
<path d="M20.3216 205.439H20.1288C19.7431 205.439 19.5502 205.053 19.5502 204.86C19.5502 204.474 19.9359 204.281 20.1288 204.281H20.3216C20.7074 204.281 20.9002 204.667 20.9002 204.86C20.9002 205.246 20.7074 205.439 20.3216 205.439Z" fill="#151515"/>
<path d="M287.818 282.361V286.024C287.818 289.301 284.925 292 281.453 292H154.359C150.887 292 147.995 289.301 147.995 286.024V282.361H205.467C205.852 283.71 207.202 284.674 208.938 284.674H226.874C228.417 284.674 229.767 283.71 230.346 282.361H287.818Z" fill="#262A31"/>
<path d="M287.818 282.361C287.818 285.639 284.925 288.339 281.453 288.339H154.359C150.887 288.339 147.995 285.639 147.995 282.361H205.467C205.852 283.711 207.202 284.675 208.938 284.675H226.874C228.417 284.675 229.767 283.711 230.346 282.361H287.818Z" fill="#353B4A"/>
<path d="M280.682 282.36H155.13V202.931C155.13 200.425 157.252 198.304 159.759 198.304H276.053C278.56 198.304 280.682 200.425 280.682 202.931V282.36Z" fill="#262A31"/>
<path d="M249.439 282.746H161.109V205.052H274.318V282.746H262.36" fill="#474E61"/>
<path d="M241.917 268.483H193.895C192.738 268.483 191.774 267.519 191.774 266.361V265.011C191.774 263.854 192.738 262.89 193.895 262.89H241.917C243.074 262.89 244.039 263.854 244.039 265.011V266.361C243.846 267.519 243.074 268.483 241.917 268.483Z" fill="#474E61"/>
<path d="M241.146 263.081C242.689 263.081 243.846 264.238 243.846 265.78C243.846 267.323 242.689 268.48 241.146 268.48H194.474C192.931 268.48 191.774 267.323 191.774 265.78C191.774 264.238 192.931 263.081 194.474 263.081H241.146ZM241.146 260.575H194.474C191.581 260.575 189.267 262.889 189.267 265.78C189.267 268.672 191.581 270.986 194.474 270.986H241.146C244.039 270.986 246.353 268.672 246.353 265.78C246.353 262.889 244.039 260.575 241.146 260.575Z" fill="#5E6481"/>
<path d="M210.481 266.94H194.667C194.281 266.94 193.895 266.554 193.895 266.168V265.59C193.895 265.204 194.281 264.818 194.667 264.818H210.481C210.867 264.818 211.253 265.204 211.253 265.59V266.168C211.253 266.554 211.06 266.94 210.481 266.94Z" fill="url(#paint4_linear_25_658)"/>
<path d="M210.095 221.825C212.795 220.089 215.881 219.125 219.353 219.125C228.61 219.125 236.324 226.644 236.324 236.091C236.324 245.538 228.803 253.056 219.353 253.056C209.903 253.056 202.381 245.538 202.381 236.091C202.574 229.922 205.467 224.716 210.095 221.825Z" fill="url(#paint5_linear_25_658)"/>
<path d="M220.509 227.415L225.524 232.428C226.102 233.006 226.102 233.97 225.524 234.741C224.945 235.32 223.981 235.32 223.21 234.741L220.895 232.428V243.224C220.895 244.188 220.124 244.766 219.352 244.766C218.581 244.766 217.809 243.995 217.809 243.224V232.428L215.495 234.741C214.917 235.32 213.952 235.32 213.181 234.741C212.795 234.356 212.795 233.97 212.795 233.585C212.795 233.199 212.988 232.813 213.181 232.428L218.195 227.415C218.581 227.03 218.967 227.03 219.352 227.03C219.738 227.03 220.317 227.223 220.509 227.415Z" fill="white"/>
<path d="M142.016 199.656H90.5227C89.3655 199.656 88.4012 198.692 88.4012 197.535V195.992C88.4012 194.835 89.3655 193.871 90.5227 193.871H142.016C143.173 193.871 144.138 194.835 144.138 195.992V197.535C144.33 198.692 143.366 199.656 142.016 199.656Z" fill="#474E61"/>
<path d="M141.437 193.87C142.98 193.87 144.33 195.22 144.33 196.762C144.33 198.304 142.98 199.654 141.437 199.654H91.2938C89.751 199.654 88.401 198.304 88.401 196.762C88.401 195.22 89.751 193.87 91.2938 193.87H141.437ZM141.437 191.364H91.2938C88.2081 191.364 85.8938 193.87 85.8938 196.762C85.8938 199.846 88.401 202.16 91.2938 202.16H141.437C144.523 202.16 146.837 199.654 146.837 196.762C146.837 193.87 144.33 191.364 141.437 191.364Z" fill="#5E6481"/>
<path d="M108.458 198.114H91.4868C90.9082 198.114 90.5225 197.728 90.5225 197.15V196.571C90.5225 195.993 90.9082 195.607 91.4868 195.607H108.458C109.037 195.607 109.423 195.993 109.423 196.571V197.15C109.423 197.728 109.037 198.114 108.458 198.114Z" fill="url(#paint6_linear_25_658)"/>
<path d="M108.072 149.721C110.965 147.794 114.437 146.83 118.101 146.83C128.13 146.83 136.23 154.927 136.23 164.952C136.23 174.977 128.13 183.074 118.101 183.074C108.072 183.074 99.9724 174.977 99.9724 164.952C99.7795 158.397 103.058 152.806 108.072 149.721Z" fill="url(#paint7_linear_25_658)"/>
<path d="M119.259 155.698L124.659 161.096C125.237 161.675 125.237 162.831 124.659 163.41C124.08 163.988 122.923 163.988 122.344 163.41L119.837 161.096V172.664C119.837 173.628 119.066 174.399 118.101 174.399C117.137 174.399 116.366 173.628 116.366 172.664V161.096L113.859 163.603C113.28 164.181 112.123 164.181 111.544 163.603C111.159 163.217 110.966 162.831 110.966 162.446C110.966 162.06 111.159 161.482 111.544 161.289L116.944 155.891C117.33 155.506 117.716 155.313 118.101 155.313C118.487 155.313 118.873 155.506 119.259 155.698Z" fill="white"/>
<path d="M35.7503 256.335H12.2214C11.6429 256.335 11.2571 255.95 11.2571 255.371V254.792C11.2571 254.214 11.6429 253.828 12.2214 253.828H35.7503C36.3289 253.828 36.7146 254.214 36.7146 254.792V255.371C36.7146 255.757 36.3289 256.335 35.7503 256.335Z" fill="#474E61"/>
<path d="M35.3645 253.635C36.136 253.635 36.7146 254.214 36.7146 254.985C36.7146 255.756 36.136 256.335 35.3645 256.335H12.6071C11.8357 256.335 11.2571 255.756 11.2571 254.985C11.2571 254.214 11.8357 253.635 12.6071 253.635H35.3645ZM35.3645 252.478H12.6071C11.2571 252.478 10.0999 253.635 10.0999 254.985C10.0999 256.335 11.2571 257.492 12.6071 257.492H35.5574C36.9074 257.492 38.0646 256.335 38.0646 254.985C37.8717 253.635 36.9074 252.478 35.3645 252.478Z" fill="#5E6481"/>
<path d="M20.3217 255.563H12.6073C12.4144 255.563 12.2216 255.371 12.2216 255.178V254.985C12.2216 254.792 12.4144 254.599 12.6073 254.599H20.3217C20.5145 254.599 20.7074 254.792 20.7074 254.985V255.178C20.9003 255.371 20.7074 255.563 20.3217 255.563Z" fill="url(#paint8_linear_25_658)"/>
<path d="M18.9717 227.03C20.7074 225.873 22.8289 225.295 24.9503 225.295C30.929 225.295 35.9433 230.114 35.9433 236.091C35.9433 242.067 31.1218 246.887 24.9503 246.887C18.7788 246.887 13.9574 242.067 13.9574 236.091C14.1502 232.235 16.0788 228.958 18.9717 227.03Z" fill="url(#paint9_linear_25_658)"/>
<path d="M25.7215 230.695L29.0001 233.779C29.3859 234.165 29.3859 234.743 29.0001 235.129C28.6144 235.515 28.0358 235.515 27.4573 235.129L25.9144 233.587V240.527C25.9144 241.105 25.5287 241.491 24.9501 241.491C24.3715 241.491 23.9858 241.105 23.9858 240.527V233.587L22.4429 235.129C22.0572 235.515 21.4786 235.515 20.9 235.129C20.7072 234.936 20.5143 234.743 20.5143 234.358C20.5143 234.165 20.7072 233.779 20.9 233.587L24.1787 230.502C24.3715 230.309 24.5644 230.116 24.9501 230.116C25.3358 230.116 25.5287 230.502 25.7215 230.695Z" fill="white"/>
<defs>
<filter id="filter0_d_25_658" x="52.0847" y="0.669514" width="289.021" height="227.734" filterUnits="userSpaceOnUse" color-interpolation-filters="sRGB">
<feFlood flood-opacity="0" result="BackgroundImageFix"/>
<feColorMatrix in="SourceAlpha" type="matrix" values="0 0 0 0 0 0 0 0 0 0 0 0 0 0 0 0 0 0 127 0" result="hardAlpha"/>
<feOffset dy="29.6332"/>
<feGaussianBlur stdDeviation="29.6332"/>
<feColorMatrix type="matrix" values="0 0 0 0 0.397708 0 0 0 0 0.47749 0 0 0 0 0.575 0 0 0 0.18 0"/>
<feBlend mode="normal" in2="BackgroundImageFix" result="effect1_dropShadow_25_658"/>
<feBlend mode="normal" in="SourceGraphic" in2="effect1_dropShadow_25_658" result="shape"/>
</filter>
<linearGradient id="paint0_linear_25_658" x1="216.925" y1="71.2382" x2="244.285" y2="101.097" gradientUnits="userSpaceOnUse">
<stop stop-color="#8A99C1"/>
<stop offset="0.9942" stop-color="#606A83" stop-opacity="0"/>
</linearGradient>
<linearGradient id="paint1_linear_25_658" x1="159.322" y1="52.749" x2="177.699" y2="66.9198" gradientUnits="userSpaceOnUse">
<stop stop-color="#50576C"/>
<stop offset="0.9942" stop-color="#43464F" stop-opacity="0"/>
</linearGradient>
<linearGradient id="paint2_linear_25_658" x1="179.202" y1="89.049" x2="222.845" y2="89.049" gradientUnits="userSpaceOnUse">
<stop stop-color="#FF66A9"/>
<stop offset="1" stop-color="#F53689"/>
</linearGradient>
<linearGradient id="paint3_linear_25_658" x1="116.176" y1="281.123" x2="116.176" y2="250.955" gradientUnits="userSpaceOnUse">
<stop stop-color="#474755"/>
<stop offset="0.9913" stop-color="#2F3338"/>
</linearGradient>
<linearGradient id="paint4_linear_25_658" x1="193.776" y1="265.772" x2="211.348" y2="265.772" gradientUnits="userSpaceOnUse">
<stop stop-color="#83A6FF"/>
<stop offset="1" stop-color="#5A78FF"/>
</linearGradient>
<linearGradient id="paint5_linear_25_658" x1="219.437" y1="219.823" x2="219.437" y2="254.054" gradientUnits="userSpaceOnUse">
<stop stop-color="#83A6FF"/>
<stop offset="1" stop-color="#5A78FF"/>
</linearGradient>
<linearGradient id="paint6_linear_25_658" x1="90.4996" y1="196.876" x2="109.357" y2="196.876" gradientUnits="userSpaceOnUse">
<stop stop-color="#83A6FF"/>
<stop offset="1" stop-color="#5A78FF"/>
</linearGradient>
<linearGradient id="paint7_linear_25_658" x1="118.038" y1="147.567" x2="118.038" y2="184.301" gradientUnits="userSpaceOnUse">
<stop stop-color="#83A6FF"/>
<stop offset="1" stop-color="#5A78FF"/>
</linearGradient>
<linearGradient id="paint8_linear_25_658" x1="12.1979" y1="254.972" x2="20.8185" y2="254.972" gradientUnits="userSpaceOnUse">
<stop stop-color="#83A6FF"/>
<stop offset="1" stop-color="#5A78FF"/>
</linearGradient>
<linearGradient id="paint9_linear_25_658" x1="25.0292" y1="225.745" x2="25.0292" y2="247.526" gradientUnits="userSpaceOnUse">
<stop stop-color="#83A6FF"/>
<stop offset="1" stop-color="#5A78FF"/>
</linearGradient>
</defs>
</svg>
