<svg width="461" height="239" viewBox="0 0 461 239" fill="none" xmlns="http://www.w3.org/2000/svg">
<path d="M116.547 117.349C115.097 117.349 114.227 116.482 114.227 115.037C114.227 113.591 115.097 112.724 116.547 112.724C117.996 112.724 118.866 113.591 118.866 115.037C118.866 116.482 117.706 117.349 116.547 117.349Z" fill="#6A83FF"/>
<path d="M116.547 166.486C115.097 166.486 114.227 165.619 114.227 164.173C114.227 162.728 115.097 161.861 116.547 161.861C117.996 161.861 118.866 162.728 118.866 164.173C118.866 165.619 117.706 166.486 116.547 166.486Z" fill="#6A83FF"/>
<path d="M34.2107 41.6216H33.6309C32.4712 41.6216 31.3115 42.4887 31.3115 43.9339C31.3115 45.3791 32.1813 46.2462 33.6309 46.2462H34.2107C35.3704 46.2462 36.53 45.3791 36.53 43.9339C36.53 42.4887 35.3704 41.6216 34.2107 41.6216Z" fill="url(#paint0_linear_25_763)"/>
<path d="M24.933 41.6216H24.3532C23.1935 41.6216 22.0339 42.4887 22.0339 43.9339C22.0339 45.3791 22.9036 46.2462 24.3532 46.2462H24.933C26.0927 46.2462 27.2524 45.3791 27.2524 43.9339C27.2524 42.4887 26.0927 41.6216 24.933 41.6216Z" fill="url(#paint1_linear_25_763)"/>
<path d="M43.4874 41.6216H42.9076C41.7479 41.6216 40.5882 42.4887 40.5882 43.6448C40.5882 44.801 41.458 45.9571 42.6176 45.9571H43.1975C43.1975 45.9571 43.1975 45.9571 43.4874 45.9571C44.6471 45.9571 45.5168 45.09 45.5168 43.9339C45.5168 42.7777 44.6471 41.9106 43.4874 41.6216Z" fill="url(#paint2_linear_25_763)"/>
<path d="M63.7819 69.9476C63.7819 68.7914 62.9122 67.6353 61.4626 67.6353C60.013 67.6353 59.1432 68.5024 59.1432 69.9476V70.5256C59.1432 71.6818 60.013 72.8379 61.4626 72.8379C62.9122 72.8379 63.7819 71.9708 63.7819 70.5256V69.9476Z" fill="url(#paint3_linear_25_763)"/>
<path d="M60.013 51.7384L59.7231 51.1603C59.1433 50.2932 57.6937 50.0042 56.8239 50.5822C55.9542 51.1603 55.6643 52.6055 56.2441 53.4726L56.534 54.0507C56.8239 54.6288 57.6937 54.9178 58.2735 54.9178C58.5634 54.9178 59.1433 54.9178 59.4332 54.6288C60.5929 54.0507 60.8828 52.8945 60.013 51.7384Z" fill="url(#paint4_linear_25_763)"/>
<path d="M61.4626 76.884C60.3029 76.884 59.1432 77.7511 59.1432 79.1963V79.7744C59.1432 80.9306 60.013 82.0867 61.4626 82.0867C62.9122 82.0867 63.7819 80.9306 63.7819 79.7744V79.1963C63.7819 77.7511 62.6223 76.884 61.4626 76.884Z" fill="url(#paint5_linear_25_763)"/>
<path d="M15.9456 41.6216H15.3658C14.2061 41.6216 13.0465 42.4887 13.0465 43.9339C13.0465 45.3791 13.9162 46.2462 15.3658 46.2462H15.9456C17.1053 46.2462 18.265 45.3791 18.265 43.9339C18.265 42.4887 17.1053 41.6216 15.9456 41.6216Z" fill="url(#paint6_linear_25_763)"/>
<path d="M53.0549 44.8015L52.4751 44.5124C51.3154 43.9344 50.1557 44.2234 49.5759 45.3795C48.9961 46.5357 49.286 47.6918 50.4456 48.2699L50.7356 48.5589C51.0255 48.848 51.6053 48.848 51.8952 48.848C52.765 48.848 53.3448 48.5589 53.6347 47.6918C54.2146 46.8247 53.9246 45.3795 53.0549 44.8015Z" fill="url(#paint7_linear_25_763)"/>
<path d="M66.3912 104.632C65.8113 103.765 64.3617 103.476 63.492 104.054C62.6222 104.632 62.3323 106.077 62.9122 106.944L63.2021 107.522C63.492 108.1 64.3617 108.389 64.9416 108.389C65.2315 108.389 65.8113 108.389 66.1012 108.1C66.971 107.522 67.2609 106.077 66.6811 105.21L66.3912 104.632Z" fill="url(#paint8_linear_25_763)"/>
<path d="M72.7693 110.413L72.4794 110.124C71.3197 109.545 70.1601 109.834 69.5802 110.702C69.0004 111.858 69.2903 113.014 70.1601 113.592L70.7399 113.881C71.0298 114.17 71.3197 114.17 71.8996 114.17C72.7693 114.17 73.3491 113.881 73.929 113.014C74.2189 112.436 73.6391 110.991 72.7693 110.413Z" fill="url(#paint9_linear_25_763)"/>
<path d="M80.3075 112.725H79.7277C78.568 112.725 77.4083 113.592 77.4083 114.748C77.4083 115.905 78.2781 117.061 79.4377 117.061H80.0176C80.0176 117.061 80.0176 117.061 80.3075 117.061C81.4672 117.061 82.3369 116.194 82.3369 115.037C82.6268 113.881 81.7571 113.014 80.3075 112.725Z" fill="url(#paint10_linear_25_763)"/>
<path d="M61.4625 63.5886C62.9121 63.2995 63.7818 62.4324 63.4919 61.2763V60.6982C63.202 59.5421 62.3323 58.6749 60.8827 58.964C59.723 59.253 58.8532 60.1201 59.1432 61.5653V62.1434C59.4331 62.7215 60.3028 63.5886 61.4625 63.5886Z" fill="url(#paint11_linear_25_763)"/>
<path d="M63.7816 97.406V96.828C63.7816 95.6718 62.622 94.8047 61.4623 94.8047C60.3026 94.8047 59.4329 95.9608 59.4329 97.117C59.4329 97.406 59.4329 97.6951 59.4329 97.6951C59.7228 98.8512 60.5926 99.4293 61.4623 99.4293H61.7522C63.2018 99.7183 64.0716 98.5622 63.7816 97.406Z" fill="url(#paint12_linear_25_763)"/>
<path d="M61.4626 91.0469C62.6223 91.0469 63.7819 90.1798 63.7819 88.7346V88.1565C63.7819 87.0004 62.9122 85.8442 61.4626 85.8442C60.013 85.8442 59.1432 86.7113 59.1432 88.1565V88.7346C59.4332 89.8908 60.3029 91.0469 61.4626 91.0469Z" fill="url(#paint13_linear_25_763)"/>
<path d="M6.37808 41.6216C5.21841 41.6216 4.05875 42.4887 4.05875 43.9339C4.05875 45.3791 4.9285 46.2462 6.37808 46.2462H6.668C7.82767 46.2462 8.69742 45.3791 8.69742 43.9339C8.69742 42.4887 7.53775 41.6216 6.37808 41.6216Z" fill="url(#paint14_linear_25_763)"/>
<path d="M116.547 113.014H107.559H106.979H98.282H97.7021H89.2946H88.7147C87.5551 113.014 86.3954 113.881 86.3954 115.326C86.3954 116.771 87.2651 117.638 88.7147 117.638H89.2946H97.7021H98.5719H107.269H107.849H116.837C117.996 117.638 119.156 116.771 119.156 115.326C119.156 113.881 117.706 113.014 116.547 113.014Z" fill="url(#paint15_linear_25_763)"/>
<path d="M116.547 141.05C115.097 141.05 114.227 140.183 114.227 138.738C114.227 137.293 115.097 136.426 116.547 136.426C117.996 136.426 118.866 137.293 118.866 138.738C118.866 140.183 117.706 141.05 116.547 141.05Z" fill="#EE4192"/>
<path d="M40.5881 136.715H40.0083C38.8486 136.715 37.689 137.582 37.689 139.027C37.689 140.472 38.5587 141.339 40.0083 141.339H40.5881C41.7478 141.339 42.9075 140.472 42.9075 139.027C42.9075 137.582 41.7478 136.715 40.5881 136.715Z" fill="url(#paint16_linear_25_763)"/>
<path d="M50.1555 136.715H49.5756C48.416 136.715 47.2563 137.582 47.2563 139.027C47.2563 140.472 48.126 141.339 49.5756 141.339H50.1555C51.3151 141.339 52.4748 140.472 52.4748 139.027C52.4748 137.582 51.3151 136.715 50.1555 136.715Z" fill="url(#paint17_linear_25_763)"/>
<path d="M31.0208 136.715H30.441C29.2813 136.715 28.1217 137.582 28.1217 139.027C28.1217 140.472 28.9914 141.339 30.441 141.339H31.0208C32.1805 141.339 33.3402 140.472 33.3402 139.027C33.3402 137.582 32.1805 136.715 31.0208 136.715Z" fill="url(#paint18_linear_25_763)"/>
<path d="M21.4539 136.715H20.874C19.7144 136.715 18.5547 137.582 18.5547 139.027C18.5547 140.472 19.4244 141.339 20.874 141.339H21.4539C22.6135 141.339 23.7732 140.472 23.7732 139.027C23.7732 137.582 22.6135 136.715 21.4539 136.715Z" fill="url(#paint19_linear_25_763)"/>
<path d="M11.8865 136.715H11.3067C10.147 136.715 8.98738 137.582 8.98738 139.027C8.98738 140.472 9.85713 141.339 11.3067 141.339H11.8865C13.0462 141.339 14.2059 140.472 14.2059 139.027C14.2059 137.582 13.3361 136.715 11.8865 136.715Z" fill="url(#paint20_linear_25_763)"/>
<path d="M78.8574 136.715H78.2775C77.1179 136.715 75.9582 137.582 75.9582 139.027C75.9582 140.472 76.8279 141.339 78.2775 141.339H78.8574C80.017 141.339 81.1767 140.472 81.1767 139.027C81.1767 137.582 80.017 136.715 78.8574 136.715Z" fill="url(#paint21_linear_25_763)"/>
<path d="M59.7227 136.715H59.1429C57.9832 136.715 56.8236 137.582 56.8236 139.027C56.8236 140.472 57.6933 141.339 59.1429 141.339H59.7227C60.8824 141.339 62.0421 140.472 62.0421 139.027C62.0421 137.582 60.8824 136.715 59.7227 136.715Z" fill="url(#paint22_linear_25_763)"/>
<path d="M69.2904 136.715H68.7106C67.5509 136.715 66.3912 137.582 66.3912 139.027C66.3912 140.472 67.261 141.339 68.7106 141.339H69.2904C70.4501 141.339 71.6097 140.472 71.6097 139.027C71.6097 137.582 70.4501 136.715 69.2904 136.715Z" fill="url(#paint23_linear_25_763)"/>
<path d="M2.60925 136.715H2.31933C1.15967 136.715 0 137.582 0 139.027C0 140.472 0.869751 141.339 2.31933 141.339H2.60925C3.76892 141.339 4.92859 140.472 4.92859 139.027C4.92859 137.582 3.76892 136.715 2.60925 136.715Z" fill="url(#paint24_linear_25_763)"/>
<path d="M116.547 136.715H107.269H106.689H97.702H97.1222H89.0045H88.7146H88.4247H87.8448C86.6852 136.715 85.5255 137.582 85.5255 139.027C85.5255 140.472 86.3953 141.339 87.8448 141.339H88.4247H88.7146H89.0045H97.1222H97.702H106.689H107.269H116.547C117.706 141.339 118.866 140.472 118.866 139.027C118.866 137.582 117.706 136.715 116.547 136.715Z" fill="url(#paint25_linear_25_763)"/>
<path d="M50.7356 230.941L50.4456 231.23C49.286 231.808 48.9961 233.253 49.5759 234.121C49.8658 234.699 50.7356 235.277 51.6053 235.277C51.8952 235.277 52.1851 235.277 52.765 234.988L53.3448 234.699C54.5045 234.121 54.7944 232.675 53.9246 231.808C53.0549 230.652 51.6053 230.074 50.7356 230.941Z" fill="url(#paint26_linear_25_763)"/>
<path d="M42.9079 233.254H42.328C41.1684 233.254 40.2986 234.41 40.2986 235.566C40.2986 236.722 41.4583 237.589 42.328 237.589H42.9079C44.0675 237.589 44.9373 236.433 44.9373 235.277C45.2272 234.121 44.0675 233.254 42.9079 233.254Z" fill="url(#paint27_linear_25_763)"/>
<path d="M61.7521 215.622C60.5925 215.333 59.4328 216.2 59.4328 217.646V218.224C59.1429 219.38 60.0126 220.536 61.1723 220.825H61.4622C62.6219 220.825 63.4916 219.958 63.4916 219.091V218.513C63.7816 217.067 62.9118 215.911 61.7521 215.622Z" fill="url(#paint28_linear_25_763)"/>
<path d="M34.2107 233.542H33.6309C32.4712 233.542 31.3115 234.41 31.3115 235.855C31.3115 237.3 32.1813 238.167 33.6309 238.167H34.2107C35.3704 238.167 36.53 237.3 36.53 235.855C36.53 234.41 35.3704 233.542 34.2107 233.542Z" fill="url(#paint29_linear_25_763)"/>
<path d="M61.4626 206.662C60.3029 206.662 59.1432 207.529 59.1432 208.975V209.553C59.1432 210.709 60.013 211.865 61.4626 211.865C62.9122 211.865 63.7819 210.998 63.7819 209.553V208.975C63.7819 207.529 62.6223 206.662 61.4626 206.662Z" fill="url(#paint30_linear_25_763)"/>
<path d="M15.9456 233.542H15.3658C14.2061 233.542 13.0465 234.41 13.0465 235.855C13.0465 237.3 13.9162 238.167 15.3658 238.167H15.9456C17.1053 238.167 18.265 237.3 18.265 235.855C18.265 234.41 17.1053 233.542 15.9456 233.542Z" fill="url(#paint31_linear_25_763)"/>
<path d="M24.933 233.542H24.3532C23.1935 233.542 22.0339 234.41 22.0339 235.855C22.0339 237.3 22.9036 238.167 24.3532 238.167H24.933C26.0927 238.167 27.2524 237.3 27.2524 235.855C27.2524 234.41 26.0927 233.542 24.933 233.542Z" fill="url(#paint32_linear_25_763)"/>
<path d="M59.4332 224.582C58.5634 224.004 57.1139 224.293 56.534 225.161L56.2441 225.739C55.6643 226.606 55.9542 228.051 56.8239 228.629C57.1139 228.918 57.6937 228.918 57.9836 228.918C58.5634 228.918 59.4332 228.629 59.7231 228.051L60.013 227.473C60.8828 226.606 60.5929 225.161 59.4332 224.582Z" fill="url(#paint33_linear_25_763)"/>
<path d="M70.4501 165.04L69.8702 165.329C68.7106 165.907 68.4207 167.353 69.2904 168.22C69.5803 168.798 70.4501 169.376 71.0299 169.376C71.3198 169.376 71.8997 169.376 72.1896 169.087L72.4795 168.798C73.6392 168.22 73.9291 166.775 73.3492 165.907C72.7694 165.04 71.6097 164.462 70.4501 165.04Z" fill="url(#paint34_linear_25_763)"/>
<path d="M80.0176 162.15H79.4377C78.2781 162.15 77.4083 163.307 77.4083 164.463C77.4083 165.619 78.568 166.486 79.4377 166.486H79.7277H80.3075C81.4672 166.486 82.3369 165.33 82.3369 164.174C82.3369 163.018 81.1772 162.15 80.0176 162.15Z" fill="url(#paint35_linear_25_763)"/>
<path d="M63.2021 171.977L62.9122 172.556C62.3323 173.423 62.6222 174.868 63.492 175.446C63.7819 175.735 64.3617 175.735 64.6517 175.735C65.2315 175.735 66.1013 175.446 66.3912 174.868L66.6811 174.579C67.2609 173.712 66.971 172.266 66.1012 171.688C65.2315 170.532 63.7819 170.821 63.2021 171.977Z" fill="url(#paint36_linear_25_763)"/>
<path d="M61.4626 197.413C60.3029 197.413 59.1432 198.28 59.1432 199.725V200.303C59.1432 201.459 60.013 202.615 61.4626 202.615C62.9122 202.615 63.7819 201.748 63.7819 200.303V199.725C63.7819 198.569 62.6223 197.413 61.4626 197.413Z" fill="url(#paint37_linear_25_763)"/>
<path d="M61.4626 188.453C60.3029 188.453 59.1432 189.32 59.1432 190.765V191.343C59.1432 192.499 60.013 193.655 61.4626 193.655C62.9122 193.655 63.7819 192.788 63.7819 191.343V190.765C63.7819 189.32 62.6223 188.453 61.4626 188.453Z" fill="url(#paint38_linear_25_763)"/>
<path d="M62.0421 179.493C60.8825 179.204 59.7228 180.071 59.4329 181.227C59.4329 181.516 59.4329 181.805 59.4329 181.805C59.4329 182.961 60.3026 184.117 61.4623 184.117H61.7522C62.9119 184.117 63.7816 183.25 63.7816 182.094V181.516C64.0716 180.649 63.2018 179.493 62.0421 179.493Z" fill="url(#paint39_linear_25_763)"/>
<path d="M6.37842 233.542C5.21875 233.542 4.05908 234.41 4.05908 235.855C4.05908 237.3 4.92883 238.167 6.37842 238.167H6.66833C7.828 238.167 8.69775 237.3 8.69775 235.855C8.69775 234.41 7.53808 233.542 6.37842 233.542Z" fill="url(#paint40_linear_25_763)"/>
<path d="M116.547 162.15H107.559H106.979H98.2819H97.7021H89.0046H88.7147H88.4247C87.2651 162.15 86.1054 163.018 86.1054 164.463C86.1054 165.908 86.9752 166.775 88.4247 166.775H88.7147H89.0046H97.7021H98.5718H107.269H107.849H116.837C117.996 166.775 119.156 165.908 119.156 164.463C119.156 163.018 117.706 162.15 116.547 162.15Z" fill="url(#paint41_linear_25_763)"/>
<path d="M344.421 117.349C343.262 117.349 342.102 116.482 342.102 115.037C342.102 113.591 342.972 112.724 344.131 112.724H344.421C345.581 112.724 346.741 113.591 346.741 115.037C346.741 116.482 345.581 117.349 344.421 117.349Z" fill="#EE4192"/>
<path d="M344.421 166.486C343.262 166.486 342.102 165.619 342.102 164.173C342.102 162.728 342.972 161.861 344.131 161.861H344.421C345.581 161.861 346.741 162.728 346.741 164.173C346.741 165.619 345.581 166.486 344.421 166.486Z" fill="#6A83FF"/>
<path d="M399.216 67.9246C398.056 67.9246 396.896 68.7917 396.896 70.2369V70.8149C396.896 71.9711 397.766 73.1272 399.216 73.1272C400.665 73.1272 401.535 72.2601 401.535 70.8149V70.2369C401.535 68.7917 400.375 67.9246 399.216 67.9246Z" fill="url(#paint42_linear_25_763)"/>
<path d="M399.216 76.884C398.056 76.884 396.896 77.7511 396.896 79.1963V79.7744C396.896 80.9306 397.766 82.0867 399.216 82.0867C400.665 82.0867 401.535 81.2196 401.535 79.7744V79.1963C401.535 77.7511 400.375 76.884 399.216 76.884Z" fill="url(#paint43_linear_25_763)"/>
<path d="M399.215 95.0933C398.056 95.0933 396.896 95.9604 396.896 97.1165V97.6946C396.606 98.8507 397.476 100.007 398.636 100.296H398.926C400.085 100.296 400.955 99.4288 400.955 98.5617C400.955 98.2727 400.955 97.9836 400.955 97.9836C401.535 96.2494 400.665 95.0933 399.215 95.0933Z" fill="url(#paint44_linear_25_763)"/>
<path d="M397.186 104.054C396.317 103.476 394.867 103.765 394.287 104.632L393.997 104.921C393.418 105.788 393.708 107.233 394.577 107.811C394.867 108.1 395.447 108.1 395.737 108.1C396.317 108.1 397.187 107.811 397.476 107.233L397.766 106.655C398.636 105.788 398.346 104.632 397.186 104.054Z" fill="url(#paint45_linear_25_763)"/>
<path d="M380.66 112.725H380.081C378.921 112.725 378.051 113.881 378.051 115.037C378.051 116.194 379.211 117.061 380.081 117.061C380.081 117.061 380.081 117.061 380.371 117.061H380.95C382.11 117.061 382.98 115.905 382.98 114.748C382.98 113.592 382.11 112.725 380.66 112.725Z" fill="url(#paint46_linear_25_763)"/>
<path d="M388.489 110.124L388.199 110.413C387.04 110.991 386.75 112.436 387.33 113.303C387.619 113.881 388.489 114.459 389.359 114.459C389.649 114.459 390.229 114.459 390.519 114.17L391.098 113.881C392.258 113.303 392.548 111.858 391.678 110.991C390.809 109.835 389.359 109.546 388.489 110.124Z" fill="url(#paint47_linear_25_763)"/>
<path d="M371.964 113.014H371.384H362.976H362.396H353.699H353.119H344.132C342.972 113.014 341.812 113.881 341.812 115.326C341.812 116.771 342.682 117.638 344.132 117.638H353.119H353.699H362.396H362.976H371.384H371.964C373.123 117.638 374.283 116.771 374.283 115.326C374.283 113.881 373.123 113.014 371.964 113.014Z" fill="url(#paint48_linear_25_763)"/>
<path d="M399.216 86.1335C398.056 86.1335 396.896 87.0007 396.896 88.4458V89.0239C396.896 90.1801 397.766 91.3362 399.216 91.3362C400.665 91.3362 401.535 90.4691 401.535 89.0239V88.4458C401.535 87.0007 400.375 86.1335 399.216 86.1335Z" fill="url(#paint49_linear_25_763)"/>
<path d="M436.325 41.6216H435.745C434.585 41.6216 433.426 42.4887 433.426 43.9339C433.426 45.3791 434.295 46.2462 435.745 46.2462H436.325C437.484 46.2462 438.644 45.3791 438.644 43.9339C438.644 42.4887 437.484 41.6216 436.325 41.6216Z" fill="url(#paint50_linear_25_763)"/>
<path d="M445.603 41.6216H445.023C443.863 41.6216 442.703 42.4887 442.703 43.9339C442.703 45.3791 443.573 46.2462 445.023 46.2462H445.603C446.762 46.2462 447.922 45.3791 447.922 43.9339C447.922 42.4887 446.762 41.6216 445.603 41.6216Z" fill="url(#paint51_linear_25_763)"/>
<path d="M427.337 41.6216H426.757C425.598 41.6216 424.438 42.4887 424.438 43.9339C424.438 45.3791 425.308 46.2462 426.757 46.2462H427.337C428.497 46.2462 429.656 45.3791 429.656 43.9339C429.656 42.4887 428.497 41.6216 427.337 41.6216Z" fill="url(#paint52_linear_25_763)"/>
<path d="M399.795 58.6754C398.636 58.3864 397.476 59.2535 397.186 60.4096V60.9877C397.186 62.1439 397.766 63.3 399.216 63.3H399.506C400.665 63.3 401.535 62.4329 401.535 61.2767V60.6987C401.825 60.1206 400.955 58.9644 399.795 58.6754Z" fill="url(#paint53_linear_25_763)"/>
<path d="M400.955 51.1603L400.665 51.7384C400.086 52.6055 400.376 54.0507 401.245 54.6288C401.535 54.9178 402.115 54.9178 402.405 54.9178C402.985 54.9178 403.855 54.6288 404.144 54.0507L404.434 53.4726C405.014 52.6055 404.724 51.1603 403.855 50.5822C402.985 50.0042 401.825 50.2932 400.955 51.1603Z" fill="url(#paint54_linear_25_763)"/>
<path d="M408.493 44.5124L407.913 44.8015C406.754 45.3795 406.464 46.8247 407.334 47.6918C407.624 48.2699 408.493 48.848 409.073 48.848C409.363 48.848 409.943 48.848 410.233 48.5589L410.523 48.2699C411.682 47.6918 411.972 46.2466 411.392 45.3795C410.813 44.2234 409.363 43.9344 408.493 44.5124Z" fill="url(#paint55_linear_25_763)"/>
<path d="M418.06 41.6216H417.48C416.321 41.6216 415.451 42.7777 415.451 43.9339C415.451 45.09 416.611 45.9571 417.48 45.9571C417.48 45.9571 417.48 45.9571 417.77 45.9571H418.35C419.51 45.9571 420.38 44.801 420.38 43.6448C420.09 42.4887 419.22 41.6216 418.06 41.6216Z" fill="url(#paint56_linear_25_763)"/>
<path d="M454.59 41.6216C453.14 41.6216 452.271 42.4887 452.271 43.9339C452.271 45.3791 453.43 46.2462 454.59 46.2462C455.75 46.2462 456.909 45.3791 456.909 43.9339C456.909 42.4887 455.75 41.6216 454.59 41.6216Z" fill="url(#paint57_linear_25_763)"/>
<path d="M344.421 141.05C343.262 141.05 342.102 140.183 342.102 138.738C342.102 137.293 342.972 136.426 344.131 136.426H344.421C345.581 136.426 346.741 137.293 346.741 138.738C346.741 140.183 345.581 141.05 344.421 141.05Z" fill="#6A83FF"/>
<path d="M392.258 136.715H391.678C390.518 136.715 389.359 137.582 389.359 139.027C389.359 140.472 390.228 141.339 391.678 141.339H392.258C393.417 141.339 394.577 140.472 394.577 139.027C394.577 137.582 393.417 136.715 392.258 136.715Z" fill="url(#paint58_linear_25_763)"/>
<path d="M401.825 136.715H401.245C400.086 136.715 398.926 137.582 398.926 139.027C398.926 140.472 399.796 141.339 401.245 141.339H401.825C402.985 141.339 404.144 140.472 404.144 139.027C404.144 137.582 402.985 136.715 401.825 136.715Z" fill="url(#paint59_linear_25_763)"/>
<path d="M382.69 136.715H382.111C380.951 136.715 379.791 137.582 379.791 139.027C379.791 140.472 380.661 141.339 382.111 141.339H382.69C383.85 141.339 385.01 140.472 385.01 139.027C385.01 137.582 383.85 136.715 382.69 136.715Z" fill="url(#paint60_linear_25_763)"/>
<path d="M373.123 136.715H372.543H372.253H371.963H363.846H363.266H354.279H353.699H344.421C343.262 136.715 342.102 137.582 342.102 139.027C342.102 140.472 342.972 141.339 344.421 141.339H353.699H354.279H363.266H363.846H371.963H372.253H372.543H373.123C374.283 141.339 375.442 140.472 375.442 139.027C375.442 137.582 374.283 136.715 373.123 136.715Z" fill="url(#paint61_linear_25_763)"/>
<path d="M411.102 136.715H410.522C409.363 136.715 408.203 137.582 408.203 139.027C408.203 140.472 409.073 141.339 410.522 141.339H411.102C412.262 141.339 413.421 140.472 413.421 139.027C413.421 137.582 412.552 136.715 411.102 136.715Z" fill="url(#paint62_linear_25_763)"/>
<path d="M439.804 136.715H439.224C438.064 136.715 436.905 137.582 436.905 139.027C436.905 140.472 437.774 141.339 439.224 141.339H439.804C440.963 141.339 442.123 140.472 442.123 139.027C442.123 137.582 440.963 136.715 439.804 136.715Z" fill="url(#paint63_linear_25_763)"/>
<path d="M449.371 136.715H448.791C447.632 136.715 446.472 137.582 446.472 139.027C446.472 140.472 447.342 141.339 448.791 141.339H449.371C450.531 141.339 451.69 140.472 451.69 139.027C451.69 137.582 450.531 136.715 449.371 136.715Z" fill="url(#paint64_linear_25_763)"/>
<path d="M430.237 136.715H429.657C428.498 136.715 427.338 137.582 427.338 139.027C427.338 140.472 428.208 141.339 429.657 141.339H430.237C431.397 141.339 432.556 140.472 432.556 139.027C432.556 137.582 431.397 136.715 430.237 136.715Z" fill="url(#paint65_linear_25_763)"/>
<path d="M420.669 136.715H420.089C418.929 136.715 417.77 137.582 417.77 139.027C417.77 140.472 418.639 141.339 420.089 141.339H420.669C421.828 141.339 422.988 140.472 422.988 139.027C422.988 137.582 421.828 136.715 420.669 136.715Z" fill="url(#paint66_linear_25_763)"/>
<path d="M458.648 136.715C457.199 136.715 456.329 137.582 456.329 139.027C456.329 140.472 457.489 141.339 458.648 141.339C459.808 141.339 460.968 140.472 460.968 139.027C460.968 137.582 459.808 136.715 458.648 136.715Z" fill="url(#paint67_linear_25_763)"/>
<path d="M390.809 165.33L390.229 165.041C389.069 164.463 387.91 164.752 387.33 165.908C386.75 167.065 387.04 168.221 388.2 168.799L388.489 169.088C388.779 169.377 389.359 169.377 389.649 169.377C390.519 169.377 391.099 169.088 391.389 168.221C391.968 167.354 391.679 166.197 390.809 165.33Z" fill="url(#paint68_linear_25_763)"/>
<path d="M397.767 172.556L397.477 171.977C396.897 171.11 395.447 170.821 394.578 171.399C393.708 171.977 393.418 173.423 393.998 174.29L394.288 174.579C394.578 175.157 395.447 175.446 396.027 175.446C396.317 175.446 396.897 175.446 397.187 175.157C398.347 174.868 398.636 173.423 397.767 172.556Z" fill="url(#paint69_linear_25_763)"/>
<path d="M399.216 184.117C400.665 184.117 401.535 182.961 401.245 181.805C401.245 181.516 401.245 181.227 401.245 181.227C400.955 180.071 399.796 179.204 398.636 179.493C397.476 179.782 396.607 180.649 396.896 182.094V182.672C397.186 183.539 398.056 184.117 399.216 184.117Z" fill="url(#paint70_linear_25_763)"/>
<path d="M371.964 162.15H371.674H371.384H362.686H362.107H353.409H352.829H343.842C342.682 162.15 341.522 163.018 341.522 164.463C341.522 165.908 342.392 166.775 343.842 166.775H352.829H353.409H362.107H362.686H371.384H371.674H371.964C373.123 166.775 374.283 165.908 374.283 164.463C374.283 163.018 373.123 162.15 371.964 162.15Z" fill="url(#paint71_linear_25_763)"/>
<path d="M399.216 197.413C398.056 197.413 396.897 198.28 396.897 199.725V200.303C396.897 201.459 397.766 202.615 399.216 202.615C400.665 202.615 401.535 201.748 401.535 200.303V199.725C401.535 198.569 400.376 197.413 399.216 197.413Z" fill="url(#paint72_linear_25_763)"/>
<path d="M401.535 190.476C401.535 189.319 400.665 188.163 399.216 188.163C397.766 188.163 396.897 189.03 396.897 190.476V191.054C396.897 192.21 397.766 193.366 399.216 193.366C400.665 193.366 401.535 192.499 401.535 191.054V190.476Z" fill="url(#paint73_linear_25_763)"/>
<path d="M399.216 211.576C400.376 211.576 401.535 210.709 401.535 209.263V208.685C401.535 207.529 400.665 206.373 399.216 206.373C397.766 206.373 396.897 207.24 396.897 208.685V209.263C397.186 210.709 398.056 211.576 399.216 211.576Z" fill="url(#paint74_linear_25_763)"/>
<path d="M381.24 162.15H380.661C379.501 162.15 378.341 163.018 378.341 164.174C378.341 165.33 379.211 166.486 380.371 166.486H380.95H381.24C382.4 166.486 383.27 165.619 383.27 164.463C383.27 163.307 382.4 162.439 381.24 162.15Z" fill="url(#paint75_linear_25_763)"/>
<path d="M404.434 225.161C403.855 224.293 402.405 224.004 401.535 224.582C400.665 225.161 400.376 226.606 400.955 227.473L401.245 228.051C401.535 228.629 402.405 228.918 402.985 228.918C403.275 228.918 403.855 228.918 404.144 228.629C405.014 228.051 405.304 226.606 404.724 225.739L404.434 225.161Z" fill="url(#paint76_linear_25_763)"/>
<path d="M401.535 218.223V217.645C401.535 216.489 400.375 215.622 399.216 215.622C398.056 215.622 397.186 216.778 397.186 217.934V218.512C397.476 219.668 398.346 220.246 399.216 220.246H399.506C400.955 220.535 401.825 219.379 401.535 218.223Z" fill="url(#paint77_linear_25_763)"/>
<path d="M445.603 233.542H445.023C443.863 233.542 442.703 234.41 442.703 235.855C442.703 237.3 443.573 238.167 445.023 238.167H445.603C446.762 238.167 447.922 237.3 447.922 235.855C447.922 234.41 446.762 233.542 445.603 233.542Z" fill="url(#paint78_linear_25_763)"/>
<path d="M427.338 233.542H426.759C425.599 233.542 424.439 234.41 424.439 235.855C424.439 237.3 425.309 238.167 426.759 238.167H427.338C428.498 238.167 429.658 237.3 429.658 235.855C429.658 234.41 428.498 233.542 427.338 233.542Z" fill="url(#paint79_linear_25_763)"/>
<path d="M436.325 233.542H435.745C434.585 233.542 433.426 234.41 433.426 235.855C433.426 237.3 434.295 238.167 435.745 238.167H436.325C437.484 238.167 438.644 237.3 438.644 235.855C438.644 234.41 437.484 233.542 436.325 233.542Z" fill="url(#paint80_linear_25_763)"/>
<path d="M418.35 233.254H417.77C416.611 233.254 415.451 234.121 415.451 235.277C415.451 236.433 416.321 237.589 417.48 237.589H418.06C419.22 237.589 420.09 236.722 420.09 235.566C420.379 234.41 419.51 233.543 418.35 233.254Z" fill="url(#paint81_linear_25_763)"/>
<path d="M410.523 230.941L410.233 230.652C409.073 230.074 407.914 230.363 407.334 231.23C406.754 232.387 407.044 233.543 407.914 234.121L408.493 234.41C408.783 234.699 409.073 234.699 409.653 234.699C410.523 234.699 411.103 234.41 411.683 233.543C411.973 232.965 411.683 231.519 410.523 230.941Z" fill="url(#paint82_linear_25_763)"/>
<path d="M454.59 233.542C453.14 233.542 452.271 234.41 452.271 235.855C452.271 237.3 453.43 238.167 454.59 238.167C455.75 238.167 456.909 237.3 456.909 235.855C456.909 234.41 455.75 233.542 454.59 233.542Z" fill="url(#paint83_linear_25_763)"/>
<g filter="url(#filter0_d_25_763)">
<path d="M355.728 138.449C355.728 163.595 335.144 184.117 309.921 184.117C309.341 184.117 305.862 184.117 278.32 184.117C259.186 184.117 228.745 184.117 180.328 184.117H157.425C126.694 184.984 102.631 160.416 102.631 131.223C102.631 101.741 126.984 77.1729 158.005 78.329C184.387 -4.33562 305.573 7.22587 316.01 93.0699C338.333 96.2493 355.728 115.326 355.728 138.449Z" fill="#5E6882"/>
</g>
<path d="M235.412 184.695C280.405 184.695 316.879 148.332 316.879 103.476C316.879 58.6193 280.405 22.2561 235.412 22.2561C190.419 22.2561 153.945 58.6193 153.945 103.476C153.945 148.332 190.419 184.695 235.412 184.695Z" fill="url(#paint84_linear_25_763)"/>
<path d="M309.921 184.117C335.219 184.117 355.727 163.67 355.727 138.449C355.727 113.227 335.219 92.7808 309.921 92.7808C284.622 92.7808 264.114 113.227 264.114 138.449C264.114 163.67 284.622 184.117 309.921 184.117Z" fill="url(#paint85_linear_25_763)"/>
<path d="M270.182 94.5998V125.213C270.182 128.614 268.487 131.53 265.582 133.231L247.181 143.921L239.191 148.537C236.286 150.238 232.896 150.238 229.991 148.537L203.6 133.231C200.695 131.53 199 128.371 199 125.213V94.5998C199 91.1983 200.695 88.2828 203.6 86.5821L229.991 71.2755C232.896 69.5748 236.286 69.5748 239.191 71.2755L265.582 86.5821C268.487 88.2828 270.182 91.4413 270.182 94.5998Z" fill="url(#paint86_linear_25_763)"/>
<path d="M270.182 124.484V125.213C270.182 128.614 268.487 131.53 265.581 133.23L247.181 143.921L226.843 123.512L220.79 112.093L223.695 104.804L227.085 96.3003L246.454 115.737L249.36 110.878L248.633 107.719L255.897 109.906L270.182 124.484Z" fill="url(#paint87_linear_25_763)"/>
<path d="M227.085 96.3003L213.527 109.906L227.085 123.512L230.959 119.382L221.516 109.906L230.959 100.431L227.085 96.3003Z" fill="url(#paint88_linear_25_763)"/>
<path d="M242.096 96.3003L238.222 100.431L247.665 109.906L238.222 119.382L242.096 123.512L255.655 109.906L242.096 96.3003Z" fill="url(#paint89_linear_25_763)"/>
<path d="M327.606 6.06998L325.576 24.2793L312.53 26.3026L303.542 12.7178L324.996 2.3125L327.606 6.06998Z" fill="url(#paint90_linear_25_763)"/>
<path d="M325.576 24.2791L317.168 11.2725L323.256 0.289037L323.836 0L332.244 13.0067L325.576 24.2791Z" fill="url(#paint91_linear_25_763)"/>
<path d="M323.837 0L317.749 10.6944L317.169 11.2725V11.5615L309.631 12.1396H309.341L303.543 12.7176L307.601 5.78074L307.891 5.20267L310.211 1.44519L313.69 1.15615L313.98 0.867112H314.559H316.299L320.068 0.289037H320.938L323.837 0Z" fill="#89A7FF"/>
<g opacity="0.3">
<path opacity="0.3" d="M311.66 4.62648C311.95 4.62648 311.95 4.62648 311.95 4.33744V2.31418C311.95 2.02515 311.95 2.02515 311.66 2.02515C311.37 2.02515 311.37 2.02515 311.37 2.31418V4.33744C311.37 4.62648 311.37 4.62648 311.66 4.62648Z" fill="white"/>
<path opacity="0.3" d="M317.168 1.73435L315.429 2.8905C315.429 2.8905 315.139 3.17954 315.429 3.17954H315.719C315.719 3.17954 315.719 3.17954 316.009 3.17954L317.748 1.73435C317.748 1.73435 318.038 1.44531 317.748 1.44531C317.458 1.73435 317.458 1.44531 317.168 1.73435Z" fill="white"/>
<path opacity="0.3" d="M312.82 6.64795L310.501 7.8041C310.211 7.8041 310.211 8.09314 310.211 8.09314L310.501 8.38217L312.82 7.22602C313.11 7.22602 313.11 6.93699 313.11 6.93699C313.11 6.64795 312.82 6.64795 312.82 6.64795Z" fill="white"/>
<path opacity="0.3" d="M316.299 6.93699C316.299 6.64796 316.009 6.64796 316.009 6.93699C315.719 6.93699 315.719 7.22603 316.009 7.22603L316.589 8.38218L316.879 8.67122C316.879 8.67122 316.879 8.67122 317.169 8.67122C317.459 8.67122 317.459 8.38218 317.169 8.38218L316.299 6.93699Z" fill="white"/>
<path opacity="0.3" d="M307.602 9.24961C307.312 9.24961 307.312 9.53864 307.312 9.53864V10.9838C307.312 11.2729 307.602 11.2729 307.602 11.2729C307.891 11.2729 307.891 10.9838 307.891 10.9838V9.53864C307.891 9.24961 307.602 8.96057 307.602 9.24961Z" fill="white"/>
<path opacity="0.3" d="M320.067 1.73435C320.067 1.44531 319.777 1.44531 319.777 1.44531C319.487 1.44531 319.487 1.73435 319.487 1.73435L319.777 3.75761C319.777 4.04665 320.067 4.04665 320.067 4.04665C320.357 4.04665 320.357 3.75761 320.357 3.75761L320.067 1.73435Z" fill="white"/>
</g>
<path d="M110.458 57.2294L103.21 44.5118L110.748 36.9968L122.925 41.9105L113.647 58.3856L110.458 57.2294Z" fill="url(#paint92_linear_25_763)"/>
<path d="M103.21 44.512L114.807 49.1366L115.677 58.9638L115.387 59.5419L104.08 54.9173L103.21 44.512Z" fill="url(#paint93_linear_25_763)"/>
<path d="M115.387 59.5417L114.517 49.7144V48.8473L119.156 45.0898L119.446 44.8008L122.925 41.9104L123.504 48.2692V48.5583L123.794 52.3157L121.765 54.05L121.475 54.339L121.185 54.628L120.025 55.4952L117.706 57.5184L117.416 57.8074L115.387 59.5417Z" fill="#F665AA"/>
<g opacity="0.3">
<path opacity="0.3" d="M121.475 50.5813V50.8703L122.345 52.3155H122.635V52.0265L121.765 50.5813H121.475Z" fill="white"/>
<path opacity="0.3" d="M119.156 55.2061L119.736 53.4719C119.736 53.4719 119.736 53.1829 119.446 53.1829H119.156L118.576 54.9171C118.576 54.9171 118.576 55.2061 118.866 55.2061C118.866 55.4952 119.156 55.4952 119.156 55.2061Z" fill="white"/>
<path opacity="0.3" d="M119.736 50.0027L120.605 48.2685V47.9795H120.315L119.446 49.7137V50.0027C119.446 50.0027 119.736 50.0027 119.736 50.0027Z" fill="white"/>
<path opacity="0.3" d="M117.416 51.451H117.706V51.1611L116.546 50.5813H116.256V50.8712L117.416 51.451Z" fill="white"/>
<path opacity="0.3" d="M122.055 45.9602V45.6703L121.475 44.8005H121.185V45.0905L121.765 45.9602C121.765 45.9602 121.765 45.9602 122.055 45.9602Z" fill="white"/>
<path opacity="0.3" d="M117.416 56.3619H117.706V56.0729L116.546 54.9167H116.256V55.2058L117.416 56.3619Z" fill="white"/>
</g>
<path d="M275.42 217.356L290.496 213.887L295.714 223.426L287.307 234.12L273.391 219.957L275.42 217.356Z" fill="url(#paint94_linear_25_763)"/>
<path d="M290.496 213.888L282.378 224.004L272.231 221.981L271.941 221.691L279.769 211.575L290.496 213.888Z" fill="url(#paint95_linear_25_763)"/>
<path d="M271.651 221.691L281.798 223.714H282.668L285.277 229.495V229.784L287.307 234.12L280.929 232.964L280.349 232.675L276.58 232.097L275.42 229.495L275.13 229.206V228.628L274.551 227.472L273.101 224.293L272.811 223.714L271.651 221.691Z" fill="#F665AA"/>
<g opacity="0.3">
<path opacity="0.3" d="M278.9 230.075L278.61 229.785L276.871 230.365L276.581 230.655L276.871 230.945L278.61 230.365C278.9 230.365 278.9 230.075 278.9 230.075Z" fill="white"/>
<path opacity="0.3" d="M274.842 226.317L276.291 227.187H276.581V226.897L275.131 226.027H274.842C274.842 226.317 274.842 226.317 274.842 226.317Z" fill="white"/>
<path opacity="0.3" d="M280.059 228.628L281.509 230.073H281.799V229.784L280.349 228.339H280.059C280.059 228.339 280.059 228.339 280.059 228.628Z" fill="white"/>
<path opacity="0.3" d="M279.19 225.741V226.03H279.48L280.349 225.161V224.871H280.059L279.19 225.741Z" fill="white"/>
<path opacity="0.3" d="M283.538 232.099C283.538 232.099 283.828 232.389 283.828 232.099L284.698 231.809C284.698 231.809 284.988 231.519 284.698 231.519C284.698 231.519 284.408 231.229 284.408 231.519L283.538 231.809C283.538 231.809 283.248 231.809 283.538 232.099Z" fill="white"/>
<path opacity="0.3" d="M274.261 224.293C274.261 224.293 273.971 224.582 274.261 224.582C274.261 224.582 274.551 224.871 274.551 224.582L276.001 223.715C276.001 223.715 276.29 223.426 276.001 223.426C276.001 223.426 275.711 223.137 275.711 223.426L274.261 224.293Z" fill="white"/>
</g>
<defs>
<filter id="filter0_d_25_763" x="89.6307" y="20.125" width="279.097" height="188.014" filterUnits="userSpaceOnUse" color-interpolation-filters="sRGB">
<feFlood flood-opacity="0" result="BackgroundImageFix"/>
<feColorMatrix in="SourceAlpha" type="matrix" values="0 0 0 0 0 0 0 0 0 0 0 0 0 0 0 0 0 0 127 0" result="hardAlpha"/>
<feOffset dy="11"/>
<feGaussianBlur stdDeviation="6.5"/>
<feColorMatrix type="matrix" values="0 0 0 0 0 0 0 0 0 0 0 0 0 0 0 0 0 0 0.22 0"/>
<feBlend mode="normal" in2="BackgroundImageFix" result="effect1_dropShadow_25_763"/>
<feBlend mode="normal" in="SourceGraphic" in2="effect1_dropShadow_25_763" result="shape"/>
</filter>
<linearGradient id="paint0_linear_25_763" x1="-0.888079" y1="43.7448" x2="116.659" y2="43.7448" gradientUnits="userSpaceOnUse">
<stop stop-color="#83A6FF" stop-opacity="0"/>
<stop offset="1" stop-color="#5A78FF"/>
</linearGradient>
<linearGradient id="paint1_linear_25_763" x1="-0.888414" y1="43.7448" x2="116.659" y2="43.7448" gradientUnits="userSpaceOnUse">
<stop stop-color="#83A6FF" stop-opacity="0"/>
<stop offset="1" stop-color="#5A78FF"/>
</linearGradient>
<linearGradient id="paint2_linear_25_763" x1="-0.888719" y1="43.8113" x2="116.658" y2="43.8113" gradientUnits="userSpaceOnUse">
<stop stop-color="#83A6FF" stop-opacity="0"/>
<stop offset="1" stop-color="#5A78FF"/>
</linearGradient>
<linearGradient id="paint3_linear_25_763" x1="-0.888397" y1="70.2531" x2="116.659" y2="70.2531" gradientUnits="userSpaceOnUse">
<stop stop-color="#83A6FF" stop-opacity="0"/>
<stop offset="1" stop-color="#5A78FF"/>
</linearGradient>
<linearGradient id="paint4_linear_25_763" x1="-0.888372" y1="52.7252" x2="116.659" y2="52.7252" gradientUnits="userSpaceOnUse">
<stop stop-color="#83A6FF" stop-opacity="0"/>
<stop offset="1" stop-color="#5A78FF"/>
</linearGradient>
<linearGradient id="paint5_linear_25_763" x1="-0.888397" y1="79.353" x2="116.659" y2="79.353" gradientUnits="userSpaceOnUse">
<stop stop-color="#83A6FF" stop-opacity="0"/>
<stop offset="1" stop-color="#5A78FF"/>
</linearGradient>
<linearGradient id="paint6_linear_25_763" x1="-0.888375" y1="43.7448" x2="116.659" y2="43.7448" gradientUnits="userSpaceOnUse">
<stop stop-color="#83A6FF" stop-opacity="0"/>
<stop offset="1" stop-color="#5A78FF"/>
</linearGradient>
<linearGradient id="paint7_linear_25_763" x1="-0.888469" y1="46.5282" x2="116.659" y2="46.5282" gradientUnits="userSpaceOnUse">
<stop stop-color="#83A6FF" stop-opacity="0"/>
<stop offset="1" stop-color="#5A78FF"/>
</linearGradient>
<linearGradient id="paint8_linear_25_763" x1="-0.888355" y1="105.995" x2="116.659" y2="105.995" gradientUnits="userSpaceOnUse">
<stop stop-color="#83A6FF" stop-opacity="0"/>
<stop offset="1" stop-color="#5A78FF"/>
</linearGradient>
<linearGradient id="paint9_linear_25_763" x1="-0.888402" y1="112.22" x2="116.659" y2="112.22" gradientUnits="userSpaceOnUse">
<stop stop-color="#83A6FF" stop-opacity="0"/>
<stop offset="1" stop-color="#5A78FF"/>
</linearGradient>
<linearGradient id="paint10_linear_25_763" x1="-0.888016" y1="114.97" x2="116.659" y2="114.97" gradientUnits="userSpaceOnUse">
<stop stop-color="#83A6FF" stop-opacity="0"/>
<stop offset="1" stop-color="#5A78FF"/>
</linearGradient>
<linearGradient id="paint11_linear_25_763" x1="-0.888472" y1="61.1618" x2="116.659" y2="61.1618" gradientUnits="userSpaceOnUse">
<stop stop-color="#83A6FF" stop-opacity="0"/>
<stop offset="1" stop-color="#5A78FF"/>
</linearGradient>
<linearGradient id="paint12_linear_25_763" x1="-0.888656" y1="97.5477" x2="116.658" y2="97.5477" gradientUnits="userSpaceOnUse">
<stop stop-color="#83A6FF" stop-opacity="0"/>
<stop offset="1" stop-color="#5A78FF"/>
</linearGradient>
<linearGradient id="paint13_linear_25_763" x1="-0.888397" y1="88.4545" x2="116.659" y2="88.4545" gradientUnits="userSpaceOnUse">
<stop stop-color="#83A6FF" stop-opacity="0"/>
<stop offset="1" stop-color="#5A78FF"/>
</linearGradient>
<linearGradient id="paint14_linear_25_763" x1="-0.888685" y1="43.7448" x2="116.658" y2="43.7448" gradientUnits="userSpaceOnUse">
<stop stop-color="#83A6FF" stop-opacity="0"/>
<stop offset="1" stop-color="#5A78FF"/>
</linearGradient>
<linearGradient id="paint15_linear_25_763" x1="-0.888408" y1="115.042" x2="116.659" y2="115.042" gradientUnits="userSpaceOnUse">
<stop stop-color="#83A6FF" stop-opacity="0"/>
<stop offset="1" stop-color="#5A78FF"/>
</linearGradient>
<linearGradient id="paint16_linear_25_763" x1="1.14437" y1="139.02" x2="117.549" y2="139.02" gradientUnits="userSpaceOnUse">
<stop stop-color="#FF66A9" stop-opacity="0"/>
<stop offset="1" stop-color="#F53689"/>
</linearGradient>
<linearGradient id="paint17_linear_25_763" x1="1.14441" y1="139.02" x2="117.55" y2="139.02" gradientUnits="userSpaceOnUse">
<stop stop-color="#FF66A9" stop-opacity="0"/>
<stop offset="1" stop-color="#F53689"/>
</linearGradient>
<linearGradient id="paint18_linear_25_763" x1="1.14433" y1="139.02" x2="117.549" y2="139.02" gradientUnits="userSpaceOnUse">
<stop stop-color="#FF66A9" stop-opacity="0"/>
<stop offset="1" stop-color="#F53689"/>
</linearGradient>
<linearGradient id="paint19_linear_25_763" x1="1.1446" y1="139.02" x2="117.55" y2="139.02" gradientUnits="userSpaceOnUse">
<stop stop-color="#FF66A9" stop-opacity="0"/>
<stop offset="1" stop-color="#F53689"/>
</linearGradient>
<linearGradient id="paint20_linear_25_763" x1="1.14455" y1="139.02" x2="117.55" y2="139.02" gradientUnits="userSpaceOnUse">
<stop stop-color="#FF66A9" stop-opacity="0"/>
<stop offset="1" stop-color="#F53689"/>
</linearGradient>
<linearGradient id="paint21_linear_25_763" x1="1.14461" y1="139.02" x2="117.55" y2="139.02" gradientUnits="userSpaceOnUse">
<stop stop-color="#FF66A9" stop-opacity="0"/>
<stop offset="1" stop-color="#F53689"/>
</linearGradient>
<linearGradient id="paint22_linear_25_763" x1="1.1445" y1="139.02" x2="117.55" y2="139.02" gradientUnits="userSpaceOnUse">
<stop stop-color="#FF66A9" stop-opacity="0"/>
<stop offset="1" stop-color="#F53689"/>
</linearGradient>
<linearGradient id="paint23_linear_25_763" x1="1.14483" y1="139.02" x2="117.55" y2="139.02" gradientUnits="userSpaceOnUse">
<stop stop-color="#FF66A9" stop-opacity="0"/>
<stop offset="1" stop-color="#F53689"/>
</linearGradient>
<linearGradient id="paint24_linear_25_763" x1="1.14459" y1="139.02" x2="117.55" y2="139.02" gradientUnits="userSpaceOnUse">
<stop stop-color="#FF66A9" stop-opacity="0"/>
<stop offset="1" stop-color="#F53689"/>
</linearGradient>
<linearGradient id="paint25_linear_25_763" x1="1.14464" y1="139.02" x2="117.55" y2="139.02" gradientUnits="userSpaceOnUse">
<stop stop-color="#FF66A9" stop-opacity="0"/>
<stop offset="1" stop-color="#F53689"/>
</linearGradient>
<linearGradient id="paint26_linear_25_763" x1="-0.888473" y1="232.823" x2="116.659" y2="232.823" gradientUnits="userSpaceOnUse">
<stop stop-color="#83A6FF" stop-opacity="0"/>
<stop offset="1" stop-color="#5A78FF"/>
</linearGradient>
<linearGradient id="paint27_linear_25_763" x1="-0.888447" y1="235.538" x2="116.659" y2="235.538" gradientUnits="userSpaceOnUse">
<stop stop-color="#83A6FF" stop-opacity="0"/>
<stop offset="1" stop-color="#5A78FF"/>
</linearGradient>
<linearGradient id="paint28_linear_25_763" x1="-0.888725" y1="218.187" x2="116.658" y2="218.187" gradientUnits="userSpaceOnUse">
<stop stop-color="#83A6FF" stop-opacity="0"/>
<stop offset="1" stop-color="#5A78FF"/>
</linearGradient>
<linearGradient id="paint29_linear_25_763" x1="-0.888079" y1="235.605" x2="116.659" y2="235.605" gradientUnits="userSpaceOnUse">
<stop stop-color="#83A6FF" stop-opacity="0"/>
<stop offset="1" stop-color="#5A78FF"/>
</linearGradient>
<linearGradient id="paint30_linear_25_763" x1="-0.888397" y1="209.097" x2="116.659" y2="209.097" gradientUnits="userSpaceOnUse">
<stop stop-color="#83A6FF" stop-opacity="0"/>
<stop offset="1" stop-color="#5A78FF"/>
</linearGradient>
<linearGradient id="paint31_linear_25_763" x1="-0.888375" y1="235.605" x2="116.659" y2="235.605" gradientUnits="userSpaceOnUse">
<stop stop-color="#83A6FF" stop-opacity="0"/>
<stop offset="1" stop-color="#5A78FF"/>
</linearGradient>
<linearGradient id="paint32_linear_25_763" x1="-0.888414" y1="235.605" x2="116.659" y2="235.605" gradientUnits="userSpaceOnUse">
<stop stop-color="#83A6FF" stop-opacity="0"/>
<stop offset="1" stop-color="#5A78FF"/>
</linearGradient>
<linearGradient id="paint33_linear_25_763" x1="-0.888372" y1="226.625" x2="116.659" y2="226.625" gradientUnits="userSpaceOnUse">
<stop stop-color="#83A6FF" stop-opacity="0"/>
<stop offset="1" stop-color="#5A78FF"/>
</linearGradient>
<linearGradient id="paint34_linear_25_763" x1="-0.88829" y1="167.128" x2="116.659" y2="167.128" gradientUnits="userSpaceOnUse">
<stop stop-color="#83A6FF" stop-opacity="0"/>
<stop offset="1" stop-color="#5A78FF"/>
</linearGradient>
<linearGradient id="paint35_linear_25_763" x1="-0.888014" y1="164.381" x2="116.659" y2="164.381" gradientUnits="userSpaceOnUse">
<stop stop-color="#83A6FF" stop-opacity="0"/>
<stop offset="1" stop-color="#5A78FF"/>
</linearGradient>
<linearGradient id="paint36_linear_25_763" x1="-0.888355" y1="173.355" x2="116.659" y2="173.355" gradientUnits="userSpaceOnUse">
<stop stop-color="#83A6FF" stop-opacity="0"/>
<stop offset="1" stop-color="#5A78FF"/>
</linearGradient>
<linearGradient id="paint37_linear_25_763" x1="-0.888397" y1="199.997" x2="116.659" y2="199.997" gradientUnits="userSpaceOnUse">
<stop stop-color="#83A6FF" stop-opacity="0"/>
<stop offset="1" stop-color="#5A78FF"/>
</linearGradient>
<linearGradient id="paint38_linear_25_763" x1="-0.888397" y1="190.895" x2="116.659" y2="190.895" gradientUnits="userSpaceOnUse">
<stop stop-color="#83A6FF" stop-opacity="0"/>
<stop offset="1" stop-color="#5A78FF"/>
</linearGradient>
<linearGradient id="paint39_linear_25_763" x1="-0.88866" y1="181.803" x2="116.658" y2="181.803" gradientUnits="userSpaceOnUse">
<stop stop-color="#83A6FF" stop-opacity="0"/>
<stop offset="1" stop-color="#5A78FF"/>
</linearGradient>
<linearGradient id="paint40_linear_25_763" x1="-0.88835" y1="235.605" x2="116.659" y2="235.605" gradientUnits="userSpaceOnUse">
<stop stop-color="#83A6FF" stop-opacity="0"/>
<stop offset="1" stop-color="#5A78FF"/>
</linearGradient>
<linearGradient id="paint41_linear_25_763" x1="-0.888474" y1="164.308" x2="116.659" y2="164.308" gradientUnits="userSpaceOnUse">
<stop stop-color="#83A6FF" stop-opacity="0"/>
<stop offset="1" stop-color="#5A78FF"/>
</linearGradient>
<linearGradient id="paint42_linear_25_763" x1="462.379" y1="70.2533" x2="359.561" y2="70.2533" gradientUnits="userSpaceOnUse">
<stop stop-color="#FF66A9" stop-opacity="0"/>
<stop offset="1" stop-color="#F53689"/>
</linearGradient>
<linearGradient id="paint43_linear_25_763" x1="462.379" y1="79.3544" x2="359.561" y2="79.3544" gradientUnits="userSpaceOnUse">
<stop stop-color="#FF66A9" stop-opacity="0"/>
<stop offset="1" stop-color="#F53689"/>
</linearGradient>
<linearGradient id="paint44_linear_25_763" x1="462.379" y1="97.5486" x2="359.561" y2="97.5486" gradientUnits="userSpaceOnUse">
<stop stop-color="#FF66A9" stop-opacity="0"/>
<stop offset="1" stop-color="#F53689"/>
</linearGradient>
<linearGradient id="paint45_linear_25_763" x1="462.38" y1="105.996" x2="359.562" y2="105.996" gradientUnits="userSpaceOnUse">
<stop stop-color="#FF66A9" stop-opacity="0"/>
<stop offset="1" stop-color="#F53689"/>
</linearGradient>
<linearGradient id="paint46_linear_25_763" x1="462.379" y1="114.97" x2="359.561" y2="114.97" gradientUnits="userSpaceOnUse">
<stop stop-color="#FF66A9" stop-opacity="0"/>
<stop offset="1" stop-color="#F53689"/>
</linearGradient>
<linearGradient id="paint47_linear_25_763" x1="462.38" y1="112.22" x2="359.562" y2="112.22" gradientUnits="userSpaceOnUse">
<stop stop-color="#FF66A9" stop-opacity="0"/>
<stop offset="1" stop-color="#F53689"/>
</linearGradient>
<linearGradient id="paint48_linear_25_763" x1="462.38" y1="115.042" x2="359.562" y2="115.042" gradientUnits="userSpaceOnUse">
<stop stop-color="#FF66A9" stop-opacity="0"/>
<stop offset="1" stop-color="#F53689"/>
</linearGradient>
<linearGradient id="paint49_linear_25_763" x1="462.379" y1="88.4548" x2="359.561" y2="88.4548" gradientUnits="userSpaceOnUse">
<stop stop-color="#FF66A9" stop-opacity="0"/>
<stop offset="1" stop-color="#F53689"/>
</linearGradient>
<linearGradient id="paint50_linear_25_763" x1="462.379" y1="43.7449" x2="359.561" y2="43.7449" gradientUnits="userSpaceOnUse">
<stop stop-color="#FF66A9" stop-opacity="0"/>
<stop offset="1" stop-color="#F53689"/>
</linearGradient>
<linearGradient id="paint51_linear_25_763" x1="462.379" y1="43.7449" x2="359.562" y2="43.7449" gradientUnits="userSpaceOnUse">
<stop stop-color="#FF66A9" stop-opacity="0"/>
<stop offset="1" stop-color="#F53689"/>
</linearGradient>
<linearGradient id="paint52_linear_25_763" x1="462.379" y1="43.7449" x2="359.561" y2="43.7449" gradientUnits="userSpaceOnUse">
<stop stop-color="#FF66A9" stop-opacity="0"/>
<stop offset="1" stop-color="#F53689"/>
</linearGradient>
<linearGradient id="paint53_linear_25_763" x1="462.379" y1="61.1626" x2="359.562" y2="61.1626" gradientUnits="userSpaceOnUse">
<stop stop-color="#FF66A9" stop-opacity="0"/>
<stop offset="1" stop-color="#F53689"/>
</linearGradient>
<linearGradient id="paint54_linear_25_763" x1="462.38" y1="52.7252" x2="359.562" y2="52.7252" gradientUnits="userSpaceOnUse">
<stop stop-color="#FF66A9" stop-opacity="0"/>
<stop offset="1" stop-color="#F53689"/>
</linearGradient>
<linearGradient id="paint55_linear_25_763" x1="462.38" y1="46.5282" x2="359.562" y2="46.5282" gradientUnits="userSpaceOnUse">
<stop stop-color="#FF66A9" stop-opacity="0"/>
<stop offset="1" stop-color="#F53689"/>
</linearGradient>
<linearGradient id="paint56_linear_25_763" x1="462.379" y1="43.8099" x2="359.562" y2="43.8099" gradientUnits="userSpaceOnUse">
<stop stop-color="#FF66A9" stop-opacity="0"/>
<stop offset="1" stop-color="#F53689"/>
</linearGradient>
<linearGradient id="paint57_linear_25_763" x1="462.38" y1="43.7449" x2="359.562" y2="43.7449" gradientUnits="userSpaceOnUse">
<stop stop-color="#FF66A9" stop-opacity="0"/>
<stop offset="1" stop-color="#F53689"/>
</linearGradient>
<linearGradient id="paint58_linear_25_763" x1="460.921" y1="139.02" x2="342.661" y2="139.02" gradientUnits="userSpaceOnUse">
<stop stop-color="#83A6FF" stop-opacity="0"/>
<stop offset="1" stop-color="#5A78FF"/>
</linearGradient>
<linearGradient id="paint59_linear_25_763" x1="460.92" y1="139.02" x2="342.661" y2="139.02" gradientUnits="userSpaceOnUse">
<stop stop-color="#83A6FF" stop-opacity="0"/>
<stop offset="1" stop-color="#5A78FF"/>
</linearGradient>
<linearGradient id="paint60_linear_25_763" x1="460.921" y1="139.02" x2="342.66" y2="139.02" gradientUnits="userSpaceOnUse">
<stop stop-color="#83A6FF" stop-opacity="0"/>
<stop offset="1" stop-color="#5A78FF"/>
</linearGradient>
<linearGradient id="paint61_linear_25_763" x1="460.92" y1="139.02" x2="342.66" y2="139.02" gradientUnits="userSpaceOnUse">
<stop stop-color="#83A6FF" stop-opacity="0"/>
<stop offset="1" stop-color="#5A78FF"/>
</linearGradient>
<linearGradient id="paint62_linear_25_763" x1="460.92" y1="139.02" x2="342.66" y2="139.02" gradientUnits="userSpaceOnUse">
<stop stop-color="#83A6FF" stop-opacity="0"/>
<stop offset="1" stop-color="#5A78FF"/>
</linearGradient>
<linearGradient id="paint63_linear_25_763" x1="460.92" y1="139.02" x2="342.66" y2="139.02" gradientUnits="userSpaceOnUse">
<stop stop-color="#83A6FF" stop-opacity="0"/>
<stop offset="1" stop-color="#5A78FF"/>
</linearGradient>
<linearGradient id="paint64_linear_25_763" x1="460.92" y1="139.02" x2="342.66" y2="139.02" gradientUnits="userSpaceOnUse">
<stop stop-color="#83A6FF" stop-opacity="0"/>
<stop offset="1" stop-color="#5A78FF"/>
</linearGradient>
<linearGradient id="paint65_linear_25_763" x1="460.921" y1="139.02" x2="342.661" y2="139.02" gradientUnits="userSpaceOnUse">
<stop stop-color="#83A6FF" stop-opacity="0"/>
<stop offset="1" stop-color="#5A78FF"/>
</linearGradient>
<linearGradient id="paint66_linear_25_763" x1="460.919" y1="139.02" x2="342.66" y2="139.02" gradientUnits="userSpaceOnUse">
<stop stop-color="#83A6FF" stop-opacity="0"/>
<stop offset="1" stop-color="#5A78FF"/>
</linearGradient>
<linearGradient id="paint67_linear_25_763" x1="460.92" y1="139.02" x2="342.66" y2="139.02" gradientUnits="userSpaceOnUse">
<stop stop-color="#83A6FF" stop-opacity="0"/>
<stop offset="1" stop-color="#5A78FF"/>
</linearGradient>
<linearGradient id="paint68_linear_25_763" x1="460.921" y1="167.129" x2="342.661" y2="167.129" gradientUnits="userSpaceOnUse">
<stop stop-color="#83A6FF" stop-opacity="0"/>
<stop offset="1" stop-color="#5A78FF"/>
</linearGradient>
<linearGradient id="paint69_linear_25_763" x1="460.921" y1="173.354" x2="342.661" y2="173.354" gradientUnits="userSpaceOnUse">
<stop stop-color="#83A6FF" stop-opacity="0"/>
<stop offset="1" stop-color="#5A78FF"/>
</linearGradient>
<linearGradient id="paint70_linear_25_763" x1="460.921" y1="181.802" x2="342.661" y2="181.802" gradientUnits="userSpaceOnUse">
<stop stop-color="#83A6FF" stop-opacity="0"/>
<stop offset="1" stop-color="#5A78FF"/>
</linearGradient>
<linearGradient id="paint71_linear_25_763" x1="460.921" y1="164.308" x2="342.661" y2="164.308" gradientUnits="userSpaceOnUse">
<stop stop-color="#83A6FF" stop-opacity="0"/>
<stop offset="1" stop-color="#5A78FF"/>
</linearGradient>
<linearGradient id="paint72_linear_25_763" x1="460.921" y1="199.995" x2="342.66" y2="199.995" gradientUnits="userSpaceOnUse">
<stop stop-color="#83A6FF" stop-opacity="0"/>
<stop offset="1" stop-color="#5A78FF"/>
</linearGradient>
<linearGradient id="paint73_linear_25_763" x1="460.921" y1="190.895" x2="342.66" y2="190.895" gradientUnits="userSpaceOnUse">
<stop stop-color="#83A6FF" stop-opacity="0"/>
<stop offset="1" stop-color="#5A78FF"/>
</linearGradient>
<linearGradient id="paint74_linear_25_763" x1="460.921" y1="209.097" x2="342.66" y2="209.097" gradientUnits="userSpaceOnUse">
<stop stop-color="#83A6FF" stop-opacity="0"/>
<stop offset="1" stop-color="#5A78FF"/>
</linearGradient>
<linearGradient id="paint75_linear_25_763" x1="460.92" y1="164.381" x2="342.66" y2="164.381" gradientUnits="userSpaceOnUse">
<stop stop-color="#83A6FF" stop-opacity="0"/>
<stop offset="1" stop-color="#5A78FF"/>
</linearGradient>
<linearGradient id="paint76_linear_25_763" x1="460.921" y1="226.625" x2="342.661" y2="226.625" gradientUnits="userSpaceOnUse">
<stop stop-color="#83A6FF" stop-opacity="0"/>
<stop offset="1" stop-color="#5A78FF"/>
</linearGradient>
<linearGradient id="paint77_linear_25_763" x1="460.92" y1="218.187" x2="342.66" y2="218.187" gradientUnits="userSpaceOnUse">
<stop stop-color="#83A6FF" stop-opacity="0"/>
<stop offset="1" stop-color="#5A78FF"/>
</linearGradient>
<linearGradient id="paint78_linear_25_763" x1="460.921" y1="235.605" x2="342.66" y2="235.605" gradientUnits="userSpaceOnUse">
<stop stop-color="#83A6FF" stop-opacity="0"/>
<stop offset="1" stop-color="#5A78FF"/>
</linearGradient>
<linearGradient id="paint79_linear_25_763" x1="460.921" y1="235.605" x2="342.661" y2="235.605" gradientUnits="userSpaceOnUse">
<stop stop-color="#83A6FF" stop-opacity="0"/>
<stop offset="1" stop-color="#5A78FF"/>
</linearGradient>
<linearGradient id="paint80_linear_25_763" x1="460.92" y1="235.605" x2="342.66" y2="235.605" gradientUnits="userSpaceOnUse">
<stop stop-color="#83A6FF" stop-opacity="0"/>
<stop offset="1" stop-color="#5A78FF"/>
</linearGradient>
<linearGradient id="paint81_linear_25_763" x1="460.92" y1="235.538" x2="342.661" y2="235.538" gradientUnits="userSpaceOnUse">
<stop stop-color="#83A6FF" stop-opacity="0"/>
<stop offset="1" stop-color="#5A78FF"/>
</linearGradient>
<linearGradient id="paint82_linear_25_763" x1="460.921" y1="232.823" x2="342.661" y2="232.823" gradientUnits="userSpaceOnUse">
<stop stop-color="#83A6FF" stop-opacity="0"/>
<stop offset="1" stop-color="#5A78FF"/>
</linearGradient>
<linearGradient id="paint83_linear_25_763" x1="460.921" y1="235.605" x2="342.66" y2="235.605" gradientUnits="userSpaceOnUse">
<stop stop-color="#83A6FF" stop-opacity="0"/>
<stop offset="1" stop-color="#5A78FF"/>
</linearGradient>
<linearGradient id="paint84_linear_25_763" x1="173.8" y1="55.9956" x2="201.074" y2="77.083" gradientUnits="userSpaceOnUse">
<stop stop-color="#80889D"/>
<stop offset="0.9942" stop-color="#5E6882"/>
</linearGradient>
<linearGradient id="paint85_linear_25_763" x1="275.278" y1="111.752" x2="290.613" y2="123.609" gradientUnits="userSpaceOnUse">
<stop stop-color="#80889D"/>
<stop offset="0.9942" stop-color="#5E6882"/>
</linearGradient>
<linearGradient id="paint86_linear_25_763" x1="234.579" y1="147.777" x2="234.579" y2="72.4233" gradientUnits="userSpaceOnUse">
<stop stop-color="#83A6FF"/>
<stop offset="1" stop-color="#5A78FF"/>
</linearGradient>
<linearGradient id="paint87_linear_25_763" x1="223.59" y1="98.8742" x2="253.323" y2="128.504" gradientUnits="userSpaceOnUse">
<stop stop-color="#4F6AFF"/>
<stop offset="1" stop-color="#657EFF" stop-opacity="0"/>
</linearGradient>
<linearGradient id="paint88_linear_25_763" x1="240.704" y1="123.686" x2="220.759" y2="103.809" gradientUnits="userSpaceOnUse">
<stop offset="0.0113208" stop-color="#C2D1FF"/>
<stop offset="1" stop-color="white"/>
</linearGradient>
<linearGradient id="paint89_linear_25_763" x1="248.31" y1="116.054" x2="228.364" y2="96.1774" gradientUnits="userSpaceOnUse">
<stop offset="0.0113208" stop-color="#C2D1FF"/>
<stop offset="1" stop-color="white"/>
</linearGradient>
<linearGradient id="paint90_linear_25_763" x1="309.516" y1="21.7795" x2="329.401" y2="8.87539" gradientUnits="userSpaceOnUse">
<stop stop-color="#83A6FF"/>
<stop offset="1" stop-color="#5A78FF"/>
</linearGradient>
<linearGradient id="paint91_linear_25_763" x1="322.387" y1="19.4788" x2="326.756" y2="5.45689" gradientUnits="userSpaceOnUse">
<stop stop-color="#83A6FF"/>
<stop offset="1" stop-color="#5A78FF"/>
</linearGradient>
<linearGradient id="paint92_linear_25_763" x1="114.819" y1="38.6449" x2="107.845" y2="56.1922" gradientUnits="userSpaceOnUse">
<stop stop-color="#FF66A9"/>
<stop offset="1" stop-color="#F53689"/>
</linearGradient>
<linearGradient id="paint93_linear_25_763" x1="107.509" y1="46.0681" x2="111.122" y2="57.2167" gradientUnits="userSpaceOnUse">
<stop stop-color="#FF66A9"/>
<stop offset="1" stop-color="#F53689"/>
</linearGradient>
<linearGradient id="paint94_linear_25_763" x1="292.935" y1="227.118" x2="277.476" y2="214.847" gradientUnits="userSpaceOnUse">
<stop stop-color="#FF66A9"/>
<stop offset="1" stop-color="#F53689"/>
</linearGradient>
<linearGradient id="paint95_linear_25_763" x1="287.671" y1="217.613" x2="275.408" y2="217.91" gradientUnits="userSpaceOnUse">
<stop stop-color="#FF66A9"/>
<stop offset="1" stop-color="#F53689"/>
</linearGradient>
</defs>
</svg>
