<svg width="362" height="341" viewBox="0 0 362 341" fill="none" xmlns="http://www.w3.org/2000/svg">
<path d="M54.9853 69.6657C58.3478 68.5664 60.1877 64.9337 59.0948 61.5517C58.0019 58.1696 54.39 56.3191 51.0275 57.4183C47.665 58.5176 45.8251 62.1504 46.918 65.5324C48.0109 68.9144 51.6228 70.7649 54.9853 69.6657Z" fill="#2A2E37"/>
<path d="M68.9604 48.6564C71.2469 47.9089 72.4981 45.4386 71.7549 43.1389C71.0117 40.8391 68.5557 39.5807 66.2692 40.3282C63.9826 41.0757 62.7315 43.546 63.4747 45.8457C64.2179 48.1455 66.6739 49.4039 68.9604 48.6564Z" fill="#2A2E37"/>
<path d="M328.517 91.4724C332.484 87.8259 332.762 81.6349 329.136 77.6446C325.51 73.6542 319.355 73.3755 315.388 77.0221C311.42 80.6686 311.143 86.8596 314.769 90.8499C318.394 94.8403 324.55 95.119 328.517 91.4724Z" fill="#2A2E37"/>
<path d="M329.252 47.5931C330.923 46.0577 331.039 43.451 329.513 41.7708C327.986 40.0907 325.395 39.9733 323.724 41.5087C322.054 43.0441 321.937 45.6508 323.464 47.331C324.99 49.0112 327.582 49.1285 329.252 47.5931Z" fill="#2A2E37"/>
<path d="M182.855 280.955C253.146 280.955 310.128 223.643 310.128 152.944C310.128 82.2454 253.146 24.9329 182.855 24.9329C112.564 24.9329 55.5814 82.2454 55.5814 152.944C55.5814 223.643 112.564 280.955 182.855 280.955Z" fill="#2A2E37"/>
<path d="M114.993 99.3696V113.278V224.548C114.993 229.699 119.09 233.82 123.955 233.82H303.214C308.335 233.82 312.177 229.699 312.177 224.548V113.278V99.8847C312.177 94.4758 307.823 90.0972 302.445 90.0972H123.955L114.993 99.3696Z" fill="#3D4457"/>
<g filter="url(#filter0_d_25_603)">
<path d="M64.2882 87.0063V103.491V234.85C64.2882 240.774 69.1538 245.668 75.0437 245.668H286.824C292.714 245.668 297.58 240.774 297.58 234.85V103.491V87.5215C297.58 81.0823 292.458 76.1885 286.312 76.1885H75.0437L64.2882 87.0063Z" fill="#474E61"/>
</g>
<path opacity="0.5" d="M228.181 98.3393H64.2882V87.0063C64.2882 81.0823 69.1538 76.1885 75.0437 76.1885H286.824C292.714 76.1885 297.58 81.0823 297.58 87.0063V98.3393H261.472H228.181Z" fill="url(#paint0_radial_25_603)"/>
<path d="M78.1167 91.385C80.0968 91.385 81.7019 89.7705 81.7019 87.779C81.7019 85.7875 80.0968 84.1731 78.1167 84.1731C76.1367 84.1731 74.5316 85.7875 74.5316 87.779C74.5316 89.7705 76.1367 91.385 78.1167 91.385Z" fill="white"/>
<path opacity="0.6" d="M88.3599 91.385C90.3399 91.385 91.9451 89.7705 91.9451 87.779C91.9451 85.7875 90.3399 84.1731 88.3599 84.1731C86.3799 84.1731 84.7747 85.7875 84.7747 87.779C84.7747 89.7705 86.3799 91.385 88.3599 91.385Z" fill="white"/>
<path opacity="0.4" d="M98.8594 91.385C100.839 91.385 102.445 89.7705 102.445 87.779C102.445 85.7875 100.839 84.1731 98.8594 84.1731C96.8794 84.1731 95.2743 85.7875 95.2743 87.779C95.2743 89.7705 96.8794 91.385 98.8594 91.385Z" fill="white"/>
<path d="M171.075 161.958L129.333 161.701C127.541 161.701 126.26 160.155 126.26 158.61C126.26 156.807 127.797 155.519 129.333 155.519L171.075 155.777C172.867 155.777 174.148 157.322 174.148 158.868C174.148 160.413 172.867 161.958 171.075 161.958Z" fill="#242B37"/>
<path d="M270.179 161.958L222.035 161.701C220.243 161.701 218.963 160.155 218.963 158.61C218.963 156.807 220.499 155.519 222.035 155.519L269.923 155.777C271.716 155.777 272.996 157.322 272.996 158.868C273.252 160.413 271.972 161.958 270.179 161.958Z" fill="#242B37"/>
<path d="M238.169 222.487L190.025 222.23C188.232 222.23 186.952 220.684 186.952 219.139C186.952 217.336 188.489 216.048 190.025 216.048L238.169 216.306C239.961 216.306 241.242 217.851 241.242 219.396C241.242 221.199 239.705 222.487 238.169 222.487Z" fill="url(#paint1_linear_25_603)"/>
<path d="M208.463 161.701L185.159 161.444C183.367 161.444 182.086 159.898 182.086 158.353C182.086 156.55 183.623 155.262 185.159 155.262L208.463 155.52C210.256 155.52 211.536 157.065 211.536 158.611C211.792 160.414 210.256 161.701 208.463 161.701Z" fill="url(#paint2_linear_25_603)"/>
<path d="M112.688 161.444H95.5304C93.7378 161.444 92.4574 159.898 92.4574 158.353C92.4574 156.55 93.7378 155.262 95.5304 155.262H112.688C114.481 155.262 115.761 156.808 115.761 158.353C115.761 160.156 114.481 161.444 112.688 161.444Z" fill="url(#paint3_linear_25_603)"/>
<path d="M179.27 182.049L154.173 181.791C152.381 181.791 151.1 180.246 151.1 178.7C151.1 176.897 152.637 175.61 154.173 175.61L179.27 175.867C181.062 175.867 182.343 177.413 182.343 178.958C182.599 180.503 181.062 182.049 179.27 182.049Z" fill="url(#paint4_linear_25_603)"/>
<path d="M257.119 182.564L193.354 181.791C191.562 181.791 190.281 180.246 190.281 178.7C190.281 176.897 191.818 175.61 193.354 175.61L257.119 176.382C258.911 176.382 260.192 177.928 260.192 179.473C260.192 181.019 258.655 182.564 257.119 182.564Z" fill="#242B37"/>
<path d="M137.528 181.791H95.5304C93.7378 181.791 92.4574 180.246 92.4574 178.7C92.4574 176.897 93.9939 175.61 95.5304 175.61H137.528C139.321 175.61 140.601 177.155 140.601 178.7C140.601 180.246 139.321 181.791 137.528 181.791Z" fill="#242B37"/>
<path d="M212.304 202.139L154.173 201.882C152.381 201.882 151.1 200.336 151.1 198.791C151.1 196.988 152.637 195.7 154.173 195.7L212.56 195.958C214.353 195.958 215.633 197.503 215.633 199.048C215.633 200.851 214.097 202.139 212.304 202.139Z" fill="url(#paint5_linear_25_603)"/>
<path d="M137.528 201.882H95.5304C93.7378 201.882 92.4574 200.336 92.4574 198.791C92.4574 196.988 93.9939 195.7 95.5304 195.7H137.528C139.321 195.7 140.601 197.245 140.601 198.791C140.601 200.336 139.321 201.882 137.528 201.882Z" fill="#242B37"/>
<path d="M173.892 222.23L141.881 221.972C140.089 221.972 138.808 220.427 138.808 218.881C138.808 217.078 140.345 215.791 141.881 215.791L173.892 216.048C175.684 216.048 176.965 217.593 176.965 219.139C176.965 220.942 175.684 222.23 173.892 222.23Z" fill="#242B37"/>
<path d="M121.395 221.972H95.5304C93.7378 221.972 92.4574 220.427 92.4574 218.881C92.4574 217.078 93.9939 215.791 95.5304 215.791H121.395C123.187 215.791 124.468 217.336 124.468 218.881C124.724 220.684 123.187 221.972 121.395 221.972Z" fill="url(#paint6_linear_25_603)"/>
<path d="M213.329 130.793L95.5304 130.278C93.7378 130.278 92.4574 128.732 92.4574 127.187C92.4574 125.384 93.9939 124.096 95.5304 124.096L213.329 124.611C215.121 124.611 216.402 126.157 216.402 127.702C216.402 129.505 215.121 130.793 213.329 130.793Z" fill="#242B37"/>
<path d="M21.9142 117.193C22.4264 117.708 22.6825 118.223 22.6825 118.996C20.1217 126.466 19.3534 126.723 22.6825 128.011C22.9386 128.011 23.1947 128.526 22.9386 128.784C22.1703 130.844 21.9142 132.39 21.146 132.132C9.11008 127.753 21.4021 119.511 15.2561 117.193C15 117.193 15 116.935 15 116.678L16.2804 112.814C16.2804 112.557 16.5365 112.557 16.7926 112.557C19.8656 113.587 20.1217 111.269 21.146 108.436C22.4264 104.315 25.7555 103.027 29.5967 104.315C30.365 104.572 31.1332 104.83 30.8771 105.345C29.5967 109.208 29.8528 108.951 28.3163 108.436C24.4751 107.148 25.4994 117.451 21.9142 117.193Z" fill="url(#paint7_linear_25_603)"/>
<path d="M352.517 117.966C352.261 117.966 352.261 118.223 352.517 117.966C353.03 118.481 353.286 118.996 353.286 119.769C350.725 127.238 349.957 127.496 353.286 128.784C353.542 128.784 353.798 129.299 353.542 129.556C352.774 131.617 352.517 133.162 351.749 132.905C339.713 128.526 352.005 120.284 345.859 117.966C345.603 117.966 345.603 117.708 345.603 117.451L346.884 113.587C346.884 113.33 347.14 113.33 347.396 113.33C350.469 114.36 350.725 112.042 351.749 109.208C353.03 105.087 356.359 103.8 360.2 105.087C360.968 105.345 361.736 105.603 361.48 106.118C360.2 109.981 360.456 109.724 358.92 109.208C354.822 108.178 356.103 118.223 352.517 117.966Z" fill="url(#paint8_linear_25_603)"/>
<path d="M202.965 6.69676C202.709 6.43919 202.709 6.43919 202.965 6.69676C202.453 7.2119 201.941 7.72703 201.428 7.72703C193.746 6.43919 193.234 5.66649 192.466 9.01487C192.466 9.27244 192.209 9.53001 191.697 9.53001C189.393 9.01487 188.112 9.27244 188.112 8.24217C190.417 -4.63622 200.66 6.43919 201.685 0.257566C201.685 -1.47765e-06 201.941 0 202.197 0L206.038 0.772701C206.294 0.772701 206.294 1.03027 206.294 1.28784C205.782 4.37865 207.831 4.37865 211.16 4.89379C215.257 5.66649 217.306 8.49973 216.537 12.6208C216.281 13.3935 216.281 14.1662 215.769 14.1662C211.928 13.3935 211.928 13.9087 212.44 12.1057C212.952 7.46946 202.965 10.3027 202.965 6.69676Z" fill="url(#paint9_linear_25_603)"/>
<path d="M124.724 24.4175C122.931 26.2205 122.675 29.3113 124.468 31.1143C125.492 32.4021 127.285 32.9173 129.077 32.4021C129.846 33.4324 129.846 34.7202 129.333 35.7505L126.517 39.8716C126.26 40.1292 126.004 40.6443 126.004 40.9019L123.187 37.8111C123.956 35.2354 122.675 32.6597 120.114 31.887C117.554 31.1143 114.993 32.4021 114.225 34.9778C113.456 37.5535 114.737 40.1292 117.298 40.9019C118.066 41.1594 119.09 41.1594 119.858 40.9019L127.285 48.8865C126.517 51.4621 127.797 54.0378 130.358 54.8105C132.919 55.5832 135.479 54.2954 136.248 51.7197C136.248 51.4621 136.248 51.4621 136.504 51.2046C136.504 50.6894 136.504 50.1743 136.504 49.9167C136.248 47.3411 133.943 45.2805 131.126 45.7957C130.87 45.7957 130.87 45.7957 130.614 45.7957C129.846 44.7654 129.59 43.4775 130.358 42.4473L133.175 38.3262C134.967 35.4929 134.711 31.887 132.663 29.3113C132.663 29.0538 132.663 28.7962 132.919 28.7962C132.919 28.281 132.919 27.7659 132.919 27.5083C132.663 24.9327 130.358 23.1297 127.797 23.3873C126.26 23.3873 125.492 23.6448 124.724 24.4175ZM117.554 35.2354C118.322 34.7202 119.09 34.7202 119.858 35.2354C120.371 36.0081 120.371 36.7808 119.858 37.5535C119.09 38.0686 118.322 38.0686 117.554 37.5535C116.785 37.0384 116.785 36.0081 117.554 35.2354ZM132.919 49.6592C133.175 49.9167 133.175 50.1743 133.175 50.4319C133.175 51.2046 132.406 51.9773 131.382 51.9773C130.614 51.9773 129.846 51.2046 129.846 50.1743C129.846 49.9167 130.102 49.4016 130.102 49.144C130.358 48.6289 130.87 48.6289 131.382 48.6289C132.15 48.8865 132.663 49.144 132.919 49.6592ZM126.517 26.7356C127.029 25.9629 128.053 25.9629 128.821 26.4781C129.077 26.4781 129.077 26.7356 129.077 26.9932C129.077 27.2508 129.077 27.2508 129.333 27.5083C129.333 27.7659 129.333 27.7659 129.333 28.0235C129.333 28.281 129.333 28.2811 129.333 28.2811C129.077 28.5386 128.821 28.7962 128.565 29.0538C127.797 29.5689 126.773 29.0538 126.517 28.2811C126.26 28.0235 126.26 27.2508 126.517 26.7356Z" fill="#69738D"/>
<path d="M247.9 39.3564L244.059 41.4169C240.217 37.5534 234.328 37.5534 230.486 41.4169C228.438 43.4775 227.413 46.5683 227.925 49.6591L223.828 51.4621C223.06 51.7196 222.804 52.7499 223.316 53.265L224.852 56.3559C225.109 57.1286 226.133 57.3861 226.645 56.871L230.486 54.8104C234.328 58.674 240.217 58.674 244.059 54.8104C246.107 52.7499 247.132 49.6591 246.62 46.5683L250.461 44.5077C251.229 44.2502 251.485 43.2199 250.973 42.7048L249.436 39.6139C249.436 39.3564 248.412 39.0988 247.9 39.3564ZM239.449 52.4923C237.144 53.7802 234.328 52.7499 233.047 50.4318C231.767 48.1137 232.791 45.2804 235.096 43.9926C237.401 42.7048 240.217 43.735 241.498 46.0531C242.522 48.3713 241.754 51.2045 239.449 52.4923Z" fill="#69738D"/>
<path d="M49.571 208.599L45.4737 201.129C43.9372 198.296 40.6081 197.266 37.7912 198.811L37.0229 199.069L36.2547 197.781C35.9986 197.266 35.4864 197.266 34.9743 197.523C34.7182 197.523 34.7182 197.781 34.4621 198.039L32.4134 203.19C32.1574 203.705 32.4134 204.22 32.9256 204.478C32.9256 204.478 32.9256 204.478 33.1817 204.478L38.5594 205.508C39.0716 205.508 39.5838 205.25 39.5838 204.735C39.5838 204.478 39.5838 204.22 39.5838 204.22L38.8155 202.932L39.5838 202.417C40.352 201.902 41.6324 202.16 41.8885 203.19L45.9858 210.659C45.2176 211.947 45.2176 213.493 45.9858 214.78C47.0102 216.841 49.3149 217.356 51.3636 216.326C52.1318 215.811 52.644 215.296 53.1562 214.523C53.4123 214.265 53.4123 213.75 53.4123 213.493C53.6683 211.175 52.1318 209.114 49.8271 208.856C49.8271 208.599 49.571 208.599 49.571 208.599ZM49.0588 213.75C48.8028 213.75 48.8028 213.75 49.0588 213.75C48.2906 213.235 48.0345 212.462 48.5467 211.69C48.8028 211.175 49.3149 210.917 49.8271 210.917C50.0832 210.917 50.5954 211.175 50.8514 211.432C51.3636 211.947 51.3636 212.72 50.8514 213.235C50.0832 214.008 49.571 214.008 49.0588 213.75Z" fill="#69738D"/>
<path d="M27.0358 201.902C25.2432 202.932 24.475 205.508 25.4993 207.311C26.2675 208.599 27.548 209.372 29.0845 209.372L36.2548 222.25C36.7669 223.28 37.7913 223.538 38.8156 223.023C39.8399 222.508 40.096 221.477 39.5839 220.447L32.4135 207.569C33.1818 206.281 33.1818 204.735 32.4135 203.448C31.3892 201.645 28.8284 200.872 27.0358 201.902ZM29.5966 206.538C28.8284 206.796 28.0601 206.796 27.804 206.023C27.548 205.251 27.548 204.478 28.3162 204.22C29.0845 203.963 29.8527 203.963 30.1088 204.735C30.3649 205.508 30.1088 206.281 29.5966 206.538Z" fill="#69738D"/>
<path d="M332.407 167.367L332.663 166.852C333.432 165.307 333.432 163.761 332.663 162.216L330.359 157.322C330.103 157.065 330.103 156.55 330.359 156.292L331.127 154.489L332.407 155.262C332.919 155.519 333.432 155.262 333.688 154.747C333.688 154.489 333.688 154.231 333.688 154.231L332.663 148.565C332.663 148.05 332.151 147.792 331.639 147.792H331.383L326.261 150.11C325.749 150.368 325.493 150.883 325.749 151.398C325.749 151.656 326.005 151.656 326.261 151.913L327.542 152.686L326.773 154.489C326.517 154.747 326.261 155.004 326.005 155.004L320.627 155.777C319.091 156.034 317.554 157.065 317.042 158.353L316.786 158.868C314.481 158.868 312.689 160.671 312.689 162.989C312.689 165.307 314.481 167.11 316.786 167.11C319.091 167.11 320.884 165.307 320.884 162.989C320.884 162.216 320.627 161.443 320.115 160.928L320.371 160.413C320.627 160.155 320.884 159.898 321.14 159.898L325.749 159.125C326.261 159.125 326.773 159.383 327.03 159.898L329.078 164.277C329.334 164.534 329.334 165.049 329.078 165.307L328.822 165.822C326.517 165.822 324.725 167.883 324.981 169.943C324.981 172.261 327.03 174.064 329.078 173.807C331.383 173.807 333.176 171.746 332.919 169.685C333.176 168.913 332.919 168.14 332.407 167.367ZM316.274 164.534C315.506 164.277 315.25 163.246 315.762 162.731C316.018 161.958 317.042 161.701 317.554 162.216C318.323 162.474 318.579 163.504 318.067 164.019C317.811 164.534 316.786 164.792 316.274 164.534ZM328.31 170.973C327.542 170.716 327.286 169.685 327.798 169.17C328.054 168.398 329.078 168.14 329.59 168.655C330.103 169.17 330.615 169.943 330.103 170.458C329.846 170.973 329.078 171.231 328.31 170.973Z" fill="#69738D"/>
<path d="M322.968 239.771C317.846 265.012 293.006 281.496 267.91 276.087C242.814 270.936 226.424 245.951 231.802 220.71C236.924 195.468 261.764 178.985 286.86 184.394C295.823 186.197 304.017 190.575 310.419 197.272C321.431 208.348 326.297 224.317 322.968 239.771Z" fill="url(#paint10_linear_25_603)"/>
<path d="M266.646 213.5L268.694 217.742L272.916 219.8L268.694 221.859L266.646 226.101L264.597 221.859L260.375 219.8L264.597 217.742L266.646 213.5Z" fill="white"/>
<path d="M288.146 215.3L289.609 218.33L292.625 219.8L289.609 221.271L288.146 224.301L286.682 221.271L283.666 219.8L286.682 218.33L288.146 215.3Z" fill="white"/>
<path d="M287.25 233.301L288.42 235.725L290.833 236.902L288.42 238.078L287.25 240.502L286.079 238.078L283.666 236.902L286.079 235.725L287.25 233.301Z" fill="white"/>
<path fill-rule="evenodd" clip-rule="evenodd" d="M280.401 232.183L284.469 228.095C285.169 227.392 285.169 226.253 284.469 225.55L281.936 223.004C281.236 222.301 280.101 222.301 279.402 223.004L274.987 227.439C274.983 227.443 274.979 227.447 274.975 227.451L263.433 239.048C262.734 239.751 262.734 240.891 263.433 241.594L265.967 244.139C266.667 244.842 267.801 244.842 268.501 244.139L280.389 232.195C280.393 232.191 280.397 232.187 280.401 232.183ZM280.389 229.649L277.855 227.104L280.669 224.277L283.202 226.823L280.389 229.649Z" fill="white"/>
<path d="M164.417 265.758C162.88 266.016 161.6 267.046 161.088 268.592C156.99 269.364 153.661 266.274 152.893 264.728C154.429 262.925 154.173 260.349 152.381 258.804C150.588 257.259 148.027 257.516 146.491 259.319C144.954 261.122 145.211 263.698 147.003 265.243C147.515 265.501 148.027 266.016 148.54 266.016L150.332 275.546C148.54 277.091 148.283 279.667 149.82 281.47C151.356 283.273 153.917 283.531 155.71 281.985C155.966 281.985 155.966 281.728 156.222 281.728C156.478 281.47 156.734 281.212 156.99 280.697C158.015 278.637 157.246 276.061 154.942 275.031C154.686 275.031 154.686 274.773 154.429 274.773L153.661 271.167C155.966 272.713 158.783 273.228 161.6 272.97H161.856C163.392 274.773 165.953 275.031 167.746 273.485C168.002 273.485 168.002 273.228 168.002 273.228C168.258 272.97 168.514 272.713 168.77 272.198C169.794 270.137 169.026 267.561 166.978 266.531C166.209 265.758 165.185 265.501 164.417 265.758ZM149.564 260.349C150.332 260.092 151.1 260.607 151.356 261.637C151.613 262.41 151.1 263.183 150.076 263.44C149.308 263.698 148.54 263.183 148.284 262.152C148.284 261.38 148.796 260.607 149.564 260.349ZM153.661 279.925C153.149 280.44 152.125 280.182 151.613 279.667C151.1 279.152 151.356 278.122 151.869 277.607C151.869 277.607 152.125 277.349 152.381 277.349C152.637 277.091 153.149 277.349 153.405 277.349C154.173 277.864 154.429 278.637 153.917 279.409C154.173 279.667 153.917 279.667 153.661 279.925ZM165.185 271.425C164.417 271.425 163.905 270.652 163.905 269.879C163.905 269.364 164.417 268.849 164.929 268.592C165.185 268.592 165.697 268.592 165.953 268.592C166.721 268.849 166.978 269.879 166.721 270.652C166.209 271.167 165.697 271.425 165.185 271.425Z" fill="#69738D"/>
<defs>
<filter id="filter0_d_25_603" x="0.757572" y="44.4232" width="360.353" height="296.541" filterUnits="userSpaceOnUse" color-interpolation-filters="sRGB">
<feFlood flood-opacity="0" result="BackgroundImageFix"/>
<feColorMatrix in="SourceAlpha" type="matrix" values="0 0 0 0 0 0 0 0 0 0 0 0 0 0 0 0 0 0 127 0" result="hardAlpha"/>
<feOffset dy="31.7653"/>
<feGaussianBlur stdDeviation="31.7653"/>
<feColorMatrix type="matrix" values="0 0 0 0 0 0 0 0 0 0 0 0 0 0 0 0 0 0 0.18 0"/>
<feBlend mode="normal" in2="BackgroundImageFix" result="effect1_dropShadow_25_603"/>
<feBlend mode="normal" in="SourceGraphic" in2="effect1_dropShadow_25_603" result="shape"/>
</filter>
<radialGradient id="paint0_radial_25_603" cx="0" cy="0" r="1" gradientUnits="userSpaceOnUse" gradientTransform="translate(64.2882 76.1885) rotate(5.58741) scale(234.405 45.4488)">
<stop stop-color="#7CDFFF"/>
<stop offset="1" stop-color="#13B6EC"/>
</radialGradient>
<linearGradient id="paint1_linear_25_603" x1="186.939" y1="219.192" x2="241.242" y2="219.192" gradientUnits="userSpaceOnUse">
<stop stop-color="#FF66A9"/>
<stop offset="1" stop-color="#F53689"/>
</linearGradient>
<linearGradient id="paint2_linear_25_603" x1="182.116" y1="158.51" x2="211.7" y2="158.51" gradientUnits="userSpaceOnUse">
<stop stop-color="#83A6FF"/>
<stop offset="1" stop-color="#5A78FF"/>
</linearGradient>
<linearGradient id="paint3_linear_25_603" x1="92.4141" y1="158.26" x2="115.851" y2="158.26" gradientUnits="userSpaceOnUse">
<stop stop-color="#83A6FF"/>
<stop offset="1" stop-color="#5A78FF"/>
</linearGradient>
<linearGradient id="paint4_linear_25_603" x1="151.112" y1="178.714" x2="182.496" y2="178.714" gradientUnits="userSpaceOnUse">
<stop stop-color="#FF66A9"/>
<stop offset="1" stop-color="#F53689"/>
</linearGradient>
<linearGradient id="paint5_linear_25_603" x1="151.118" y1="198.898" x2="215.57" y2="198.898" gradientUnits="userSpaceOnUse">
<stop stop-color="#83A6FF"/>
<stop offset="1" stop-color="#5A78FF"/>
</linearGradient>
<linearGradient id="paint6_linear_25_603" x1="92.4318" y1="218.787" x2="124.628" y2="218.787" gradientUnits="userSpaceOnUse">
<stop stop-color="#FF66A9"/>
<stop offset="1" stop-color="#F53689"/>
</linearGradient>
<linearGradient id="paint7_linear_25_603" x1="15.3764" y1="117.993" x2="31.2915" y2="117.993" gradientUnits="userSpaceOnUse">
<stop stop-color="#FF66A9"/>
<stop offset="1" stop-color="#F53689"/>
</linearGradient>
<linearGradient id="paint8_linear_25_603" x1="345.772" y1="118.953" x2="361.687" y2="118.953" gradientUnits="userSpaceOnUse">
<stop stop-color="#83A6FF"/>
<stop offset="1" stop-color="#5A78FF"/>
</linearGradient>
<linearGradient id="paint9_linear_25_603" x1="188.089" y1="6.95278" x2="216.609" y2="6.95278" gradientUnits="userSpaceOnUse">
<stop stop-color="#83A6FF"/>
<stop offset="1" stop-color="#5A78FF"/>
</linearGradient>
<linearGradient id="paint10_linear_25_603" x1="230.676" y1="230.356" x2="323.971" y2="230.356" gradientUnits="userSpaceOnUse">
<stop stop-color="#83A6FF"/>
<stop offset="1" stop-color="#5A78FF"/>
</linearGradient>
</defs>
</svg>
