<svg xmlns="http://www.w3.org/2000/svg" width="8" height="6" viewBox="0 0 8 6" fill="none">
    <path
        d="M7.33334 1.11333C7.20843 0.989158 7.03946 0.919464 6.86334 0.919464C6.68722 0.919464 6.51825 0.989158 6.39334 1.11333L4.00001 3.47333L1.64001 1.11333C1.5151 0.989158 1.34613 0.919464 1.17001 0.919464C0.993883 0.919464 0.824915 0.989158 0.700006 1.11333C0.637521 1.1753 0.587925 1.24904 0.554079 1.33027C0.520233 1.41151 0.502808 1.49865 0.502808 1.58666C0.502808 1.67467 0.520233 1.7618 0.554079 1.84304C0.587925 1.92428 0.637521 1.99802 0.700006 2.05999L3.52667 4.88666C3.58865 4.94914 3.66238 4.99874 3.74362 5.03259C3.82486 5.06643 3.912 5.08386 4.00001 5.08386C4.08801 5.08386 4.17515 5.06643 4.25639 5.03259C4.33763 4.99874 4.41136 4.94914 4.47334 4.88666L7.33334 2.05999C7.39582 1.99802 7.44542 1.92428 7.47927 1.84304C7.51311 1.7618 7.53054 1.67467 7.53054 1.58666C7.53054 1.49865 7.51311 1.41151 7.47927 1.33027C7.44542 1.24904 7.39582 1.1753 7.33334 1.11333Z"
        fill="" />
</svg>