<svg width="54" height="54" viewBox="0 0 54 54" fill="none" xmlns="http://www.w3.org/2000/svg">
<path fill-rule="evenodd" clip-rule="evenodd" d="M27.1331 3.9375H26.8757C21.9453 3.93747 18.0727 3.93745 15.0492 4.34384C11.9508 4.76028 9.4926 5.63111 7.56112 7.56206C5.62965 9.493 4.75858 11.9506 4.34202 15.0481C4.0467 17.244 3.96594 19.8881 3.94387 23.0601C3.9365 24.1187 3.93282 24.6479 4.26288 24.9802C4.59294 25.3125 5.12494 25.3125 6.18894 25.3125H47.8198C48.8838 25.3125 49.4158 25.3125 49.7459 24.9802C50.076 24.6479 50.0723 24.1187 50.0649 23.0601C50.0429 19.8881 49.9621 17.244 49.6668 15.0481C49.2502 11.9506 48.3792 9.493 46.4477 7.56206C44.5162 5.63111 42.0579 4.76028 38.9596 4.34384C35.9361 3.93745 32.0635 3.93747 27.1331 3.9375ZM14.625 14.625C14.625 12.761 16.136 11.25 18 11.25C19.864 11.25 21.375 12.761 21.375 14.625C21.375 16.489 19.864 18 18 18C16.136 18 14.625 16.489 14.625 14.625ZM27 14.625C27 13.693 27.7555 12.9375 28.6875 12.9375H37.6875C38.6195 12.9375 39.375 13.693 39.375 14.625C39.375 15.557 38.6195 16.3125 37.6875 16.3125H28.6875C27.7555 16.3125 27 15.557 27 14.625Z" fill="#9747FF"/>
<path fill-rule="evenodd" clip-rule="evenodd" d="M47.8198 28.6875H6.18894C5.12494 28.6875 4.59294 28.6875 4.26288 29.0198C3.93282 29.3521 3.9365 29.8813 3.94387 30.9399C3.96594 34.1119 4.0467 36.756 4.34202 38.9519C4.75858 42.0494 5.62965 44.507 7.56112 46.438C9.4926 48.3689 11.9508 49.2397 15.0492 49.6562C18.0727 50.0625 21.9452 50.0625 26.8757 50.0625H27.1331C32.0635 50.0625 35.9361 50.0625 38.9596 49.6562C42.0579 49.2397 44.5162 48.3689 46.4477 46.438C48.3792 44.507 49.2502 42.0494 49.6668 38.9519C49.9621 36.756 50.0429 34.1119 50.0649 30.9399C50.0723 29.8813 50.076 29.3521 49.7459 29.0198C49.4158 28.6875 48.8838 28.6875 47.8198 28.6875ZM14.625 39.375C14.625 37.511 16.136 36 18 36C19.864 36 21.375 37.511 21.375 39.375C21.375 41.239 19.864 42.75 18 42.75C16.136 42.75 14.625 41.239 14.625 39.375ZM27 39.375C27 38.443 27.7555 37.6875 28.6875 37.6875L37.6875 37.6875C38.6195 37.6875 39.375 38.443 39.375 39.375C39.375 40.307 38.6195 41.0625 37.6875 41.0625L28.6875 41.0625C27.7555 41.0625 27 40.307 27 39.375Z" fill="#9747FF"/>
</svg>
