<svg width="54" height="54" viewBox="0 0 54 54" fill="none" xmlns="http://www.w3.org/2000/svg">
    <path fill-rule="evenodd" clip-rule="evenodd"
        d="M14.4557 13.4249C14.8082 14.6165 14.128 15.8682 12.9364 16.2208C9.3641 17.2777 8.2602 17.9993 7.71745 18.9341C7.37061 19.5315 7.19797 20.3185 7.39549 21.8761C7.60142 23.5 8.15456 25.5948 8.97632 28.6791L11.2541 37.2284C12.0759 40.3128 12.6383 42.405 13.2672 43.9146C13.8706 45.363 14.41 45.9541 15.0023 46.2941C15.5965 46.6352 16.3859 46.805 17.9543 46.5997C19.5861 46.3861 21.692 45.8235 24.7884 44.9892L25.852 44.7026C27.0519 44.3793 28.2866 45.0898 28.6099 46.2897C28.9332 47.4895 28.2227 48.7243 27.0228 49.0476L25.8068 49.3753C22.9015 50.1582 20.504 50.8043 18.5384 51.0616C16.4751 51.3317 14.5539 51.2255 12.7619 50.1967C10.968 49.1669 9.91168 47.5617 9.11322 45.6451C8.35364 43.8217 7.71711 41.4324 6.94677 38.5407L4.5871 29.6841C3.81654 26.7923 3.1799 24.403 2.93125 22.4423C2.66982 20.3807 2.78723 18.4634 3.82585 16.6746C5.36938 14.0161 8.22222 12.9227 11.6598 11.9057C12.8514 11.5531 14.1031 12.2333 14.4557 13.4249Z"
        fill="#00C0FF" />
    <path opacity="0.4"
        d="M38.8561 5.22657C41.7927 6.00894 44.161 6.6399 45.9568 7.38533C47.8211 8.15915 49.3053 9.14789 50.2562 10.7855C51.2079 12.4246 51.3275 14.2008 51.0688 16.197C50.8199 18.1178 50.1849 20.4741 49.3983 23.3927L47.0319 32.1746L47.0319 32.1746C46.2454 35.0935 45.6105 37.4497 44.8603 39.2367C44.0805 41.0943 43.0848 42.5702 41.4403 43.5143C39.7972 44.4576 38.0175 44.5765 36.0138 44.3197C34.0839 44.0725 31.7157 43.4414 28.7791 42.659L26.3939 42.0235C23.4573 41.2411 21.089 40.6101 19.2931 39.8647C17.4289 39.0909 15.9446 38.1021 14.9937 36.4645C14.0421 34.8254 13.9224 33.0493 14.1811 31.053C14.4301 29.1322 15.065 26.776 15.8516 23.8573L15.8516 23.8572L18.218 15.0755L18.218 15.0755C19.0045 12.1566 19.6394 9.80035 20.3896 8.01327C21.1694 6.15575 22.1651 4.6798 23.8096 3.73569C25.4527 2.79238 27.2324 2.67354 29.2362 2.93028C31.1661 3.17757 33.5343 3.80859 36.471 4.59109L38.8561 5.22657Z"
        fill="#00C0FF" />
    <path fill-rule="evenodd" clip-rule="evenodd"
        d="M27.3511 15.3512C27.5911 14.4507 28.5156 13.9151 29.4162 14.1551L40.1552 17.0164C41.0558 17.2563 41.5913 18.1809 41.3514 19.0814C41.1114 19.982 40.1869 20.5175 39.2863 20.2776L28.5473 17.4163C27.6467 17.1764 27.1112 16.2518 27.3511 15.3512ZM25.0491 23.894C25.289 22.9935 26.2136 22.4579 27.1142 22.6979L32.4837 24.1285C33.3843 24.3685 33.9198 25.293 33.6798 26.1936C33.4399 27.0942 32.5153 27.6297 31.6148 27.3897L26.2453 25.9591C25.3447 25.7192 24.8091 24.7946 25.0491 23.894Z"
        fill="#00C0FF" />
</svg>