<svg width="54" height="54" viewBox="0 0 54 54" fill="none" xmlns="http://www.w3.org/2000/svg">
<path d="M45.09 15.345L32.13 6.27754C28.5975 3.80254 23.175 3.93754 19.7775 6.57004L8.50498 15.3675C6.25498 17.1225 4.47748 20.7225 4.47748 23.5575V39.0825C4.47748 44.82 9.13498 49.5 14.8725 49.5H39.1275C44.865 49.5 49.5225 44.8425 49.5225 39.105V23.85C49.5225 20.8125 47.565 17.0775 45.09 15.345ZM37.98 30.15C37.98 31.0275 37.2825 31.725 36.405 31.725C35.5275 31.725 34.83 31.0275 34.83 30.15V29.745L28.71 35.865C28.3725 36.2025 27.9225 36.36 27.45 36.315C27 36.27 26.5725 36 26.325 35.6175L24.03 32.1975L18.675 37.5525C18.36 37.8675 17.9775 38.0025 17.5725 38.0025C17.1675 38.0025 16.7625 37.845 16.47 37.5525C15.8625 36.945 15.8625 35.955 16.47 35.325L23.175 28.62C23.5125 28.2825 23.9625 28.125 24.435 28.17C24.9075 28.215 25.335 28.4625 25.5825 28.8675L27.8775 32.2875L32.625 27.54H32.22C31.3425 27.54 30.645 26.8425 30.645 25.965C30.645 25.0875 31.3425 24.39 32.22 24.39H36.405C36.6075 24.39 36.81 24.435 37.0125 24.5025C37.395 24.66 37.71 24.975 37.8675 25.3575C37.9575 25.56 37.98 25.7625 37.98 25.965V30.15Z" fill="#F98011"/>
</svg>
