<svg width="19" height="20" viewBox="0 0 19 20" fill="none" xmlns="http://www.w3.org/2000/svg">
<path d="M7.25958 6.0417C7.11213 6.19003 7.02937 6.39068 7.02937 6.59982C7.02937 6.80897 7.11213 7.00962 7.25958 7.15795L10.0621 10L7.25958 12.8025C7.11214 12.9509 7.02937 13.1515 7.02937 13.3607C7.02937 13.5698 7.11214 13.7705 7.25958 13.9188C7.33318 13.993 7.42074 14.0519 7.51721 14.0921C7.61368 14.1323 7.71716 14.153 7.82167 14.153C7.92618 14.153 8.02965 14.1323 8.12612 14.0921C8.2226 14.0519 8.31015 13.993 8.38375 13.9188L11.7404 10.5621C11.8146 10.4885 11.8735 10.401 11.9137 10.3045C11.9539 10.208 11.9746 10.1045 11.9746 10C11.9746 9.89552 11.9539 9.79205 11.9137 9.69557C11.8735 9.5991 11.8146 9.51154 11.7404 9.43795L8.38375 6.0417C8.31015 5.96749 8.2226 5.9086 8.12612 5.86841C8.02965 5.82822 7.92618 5.80752 7.82167 5.80752C7.71716 5.80752 7.61368 5.82822 7.51721 5.86841C7.42074 5.9086 7.33318 5.96749 7.25958 6.0417Z" fill="#121115"/>
</svg>
